<?xml version="1.0" encoding="utf-8"?>
<!-- Generator: Adobe Illustrator 16.0.0, SVG Export Plug-In . SVG Version: 6.00 Build 0)  -->
<!DOCTYPE svg PUBLIC "-//W3C//DTD SVG 1.1//EN" "http://www.w3.org/Graphics/SVG/1.1/DTD/svg11.dtd">
<svg version="1.1" id="Layer_1" xmlns="http://www.w3.org/2000/svg" xmlns:xlink="http://www.w3.org/1999/xlink" x="0px" y="0px"
	 width="1000px" height="1000px" viewBox="0 0 1000 1000" enable-background="new 0 0 1000 1000" xml:space="preserve">
<g>
	<g>
		<g>
			<rect x="13.57" fill="#ECEFF1" width="966.43" height="999.884"/>
			<rect x="13.57" fill="#4DB6AC" width="966.43" height="394.005"/>
		</g>
		<line fill="none" stroke="#00897B" stroke-width="2" stroke-miterlimit="10" x1="550.891" y1="83.832" x2="550.891" y2="335.58"/>
	</g>
	<g>
		<g>
			<g>
				<g>
					<rect x="70.834" y="447.188" fill="#FFFFFF" width="108.211" height="70.784"/>
					<rect x="194.783" y="447.188" fill="#CFD8DC" width="108.211" height="70.784"/>
					<rect x="318.731" y="447.188" fill="#CFD8DC" width="108.21" height="70.784"/>
					<rect x="442.68" y="447.188" fill="#CFD8DC" width="108.211" height="70.784"/>
					<rect x="566.628" y="447.188" fill="#CFD8DC" width="108.211" height="70.784"/>
					<rect x="690.576" y="447.188" fill="#CFD8DC" width="108.211" height="70.784"/>
					<rect x="814.525" y="447.188" fill="#FFFFFF" width="108.211" height="70.784"/>
				</g>
				<g>
					<g>
						<g>
							<g>
								<g>
									<g>
										<text transform="matrix(1 0 0 1 735.5293 580.0586)" fill="#78909C" font-family="'OpenSans'" font-size="50.8738">1</text>
										<text transform="matrix(1 0 0 1 859.1543 580.0586)" fill="#78909C" font-family="'OpenSans'" font-size="50.8738">2</text>
										<text transform="matrix(1 0 0 1 859.1543 580.0586)" fill="#78909C" font-family="'OpenSans'" font-size="50.8738">2</text>
									</g>
									<text transform="matrix(1 0 0 1 243.2363 644.4805)" fill="#78909C" font-family="'OpenSans'" font-size="50.8738">4</text>
									<text transform="matrix(1 0 0 1 366.4082 644.4805)" fill="#78909C" font-family="'OpenSans'" font-size="50.8738">5</text>
									<text transform="matrix(1 0 0 1 489.6152 644.4805)" fill="#78909C" font-family="'OpenSans'" font-size="50.8738">6</text>
									<text transform="matrix(1 0 0 1 612.791 644.4805)" fill="#78909C" font-family="'OpenSans'" font-size="50.8738">7</text>
									<text transform="matrix(1 0 0 1 735.9746 644.4805)" fill="#78909C" font-family="'OpenSans'" font-size="50.8738">8</text>
									<text transform="matrix(1 0 0 1 859.1543 644.4805)" fill="#78909C" font-family="'OpenSans'" font-size="50.8738">9</text>
									<text transform="matrix(1 0 0 1 102.8789 708.8906)" fill="#78909C" font-family="'OpenSans'" font-size="50.8738">10</text>
									<text transform="matrix(1 0 0 1 230.2188 708.8945)" fill="#78909C" font-family="'OpenSans'" font-size="50.8738">11</text>
									<text transform="matrix(1 0 0 1 353.418 708.8906)" fill="#78909C" font-family="'OpenSans'" font-size="50.8738">12</text>
									<text transform="matrix(1 0 0 1 476.6289 708.8945)" fill="#78909C" font-family="'OpenSans'" font-size="50.8738">13</text>
									<text transform="matrix(1 0 0 1 599.6992 708.8906)" fill="#78909C" font-family="'OpenSans'" font-size="50.8738">14</text>
									<text transform="matrix(1 0 0 1 722.9219 708.8945)" fill="#78909C" font-family="'OpenSans'" font-size="50.8738">15</text>
									<text transform="matrix(1 0 0 1 846.1055 708.8906)" fill="#78909C" font-family="'OpenSans'" font-size="50.8738">16</text>
									<text transform="matrix(1 0 0 1 102.8789 773.3125)" fill="#78909C" font-family="'OpenSans'" font-size="50.8738">17</text>
									<text transform="matrix(1 0 0 1 230.2188 773.3125)" fill="#78909C" font-family="'OpenSans'" font-size="50.8738">18</text>
									<text transform="matrix(1 0 0 1 353.418 773.3125)" fill="#78909C" font-family="'OpenSans'" font-size="50.8738">19</text>
									<text transform="matrix(1 0 0 1 476.6289 773.3125)" fill="#78909C" font-family="'OpenSans'" font-size="50.8738">20</text>
									<text transform="matrix(1 0 0 1 599.6992 773.3125)" fill="#78909C" font-family="'OpenSans'" font-size="50.8738">21</text>
									<text transform="matrix(1 0 0 1 722.9219 773.3125)" fill="#78909C" font-family="'OpenSans'" font-size="50.8738">22</text>
									<text transform="matrix(1 0 0 1 846.1055 773.3125)" fill="#78909C" font-family="'OpenSans'" font-size="50.8738">23</text>
									<text transform="matrix(1 0 0 1 846.1055 837.7227)" fill="#78909C" font-family="'OpenSans'" font-size="50.8738">30</text>
									<text transform="matrix(1 0 0 1 102.8789 837.7227)" fill="#78909C" font-family="'OpenSans'" font-size="50.8738">24</text>
									<text transform="matrix(1 0 0 1 230.2188 837.7266)" fill="#78909C" font-family="'OpenSans'" font-size="50.8738">25</text>
									<text transform="matrix(1 0 0 1 353.418 837.7227)" fill="#78909C" font-family="'OpenSans'" font-size="50.8738">26</text>
									<text transform="matrix(1 0 0 1 476.6289 837.7266)" fill="#78909C" font-family="'OpenSans'" font-size="50.8738">27</text>
									<text transform="matrix(1 0 0 1 599.6992 837.7227)" fill="#78909C" font-family="'OpenSans'" font-size="50.8738">28</text>
									<text transform="matrix(1 0 0 1 722.9219 837.7266)" fill="#78909C" font-family="'OpenSans'" font-size="50.8738">29</text>
									<g>
										
											<text transform="matrix(1 0 0 1 95.8506 496.3828)" fill="#ECEFF1" font-family="'OpenSans-Semibold'" font-size="50.8738">Su</text>
										
											<text transform="matrix(1 0 0 1 215.7173 496.3828)" fill="#ECEFF1" font-family="'OpenSans-Semibold'" font-size="50.8738">Mo</text>
										
											<text transform="matrix(1 0 0 1 347.0688 496.3828)" fill="#ECEFF1" font-family="'OpenSans-Semibold'" font-size="50.8738">Tu</text>
										
											<text transform="matrix(1 0 0 1 463.0498 496.3828)" fill="#ECEFF1" font-family="'OpenSans-Semibold'" font-size="50.8738">We</text>
										
											<text transform="matrix(1 0 0 1 594.1738 496.3828)" fill="#ECEFF1" font-family="'OpenSans-Semibold'" font-size="50.8738">Th</text>
										
											<text transform="matrix(1 0 0 1 723.6504 496.3828)" fill="#ECEFF1" font-family="'OpenSans-Semibold'" font-size="50.8738">Fr</text>
										
											<text transform="matrix(1 0 0 1 843.3242 496.3828)" fill="#ECEFF1" font-family="'OpenSans-Semibold'" font-size="50.8738">Sa</text>
									</g>
									<text transform="matrix(1 0 0 1 115.4746 641.7305)" fill="#78909C" font-family="'OpenSans'" font-size="50.8738">3</text>
								</g>
							</g>
						</g>
					</g>
				</g>
			</g>
		</g>
		<g>
			<text transform="matrix(1 0 0 1 762.6367 140.0859)" fill="#00897B" font-family="'OpenSans-Bold'" font-size="66.9066">APRIL</text>
		</g>
		<g>
			<text transform="matrix(1 0 0 1 579.5215 335.2813)" fill="#00897B" font-family="'Bebas'" font-size="167.2664">2017</text>
		</g>
		<text transform="matrix(1 0 0 1 70.8359 335.2813)" fill="#FFFFFF" font-family="'Arcon-Regular'" font-size="345.684">04</text>
	</g>
</g>
</svg>
