<?xml version="1.0" encoding="utf-8"?>
<!-- Generator: Adobe Illustrator 16.0.0, SVG Export Plug-In . SVG Version: 6.00 Build 0)  -->
<!DOCTYPE svg PUBLIC "-//W3C//DTD SVG 1.1//EN" "http://www.w3.org/Graphics/SVG/1.1/DTD/svg11.dtd">
<svg version="1.1" id="Layer_1" xmlns="http://www.w3.org/2000/svg" xmlns:xlink="http://www.w3.org/1999/xlink" x="0px" y="0px"
	 width="1000px" height="1000px" viewBox="0 0 1000 1000" enable-background="new 0 0 1000 1000" xml:space="preserve">
<g>
	<g>
		<g>
			<rect x="13.165" y="0.853" fill="#ECEFF1" width="966.835" height="1000.304"/>
			<rect x="13.165" y="0.853" fill="#90A4AE" width="966.835" height="394.173"/>
		</g>
		
			<line fill="none" stroke="#90A4AE" stroke-width="2" stroke-miterlimit="10" x1="552.364" y1="84.717" x2="552.364" y2="336.576"/>
	</g>
	<g>
		<g>
			<g>
				<g>
					<rect x="70.453" y="447.754" fill="#FFFFFF" width="108.256" height="70.812"/>
					<rect x="194.453" y="447.754" fill="#CFD8DC" width="108.256" height="70.812"/>
					<rect x="318.454" y="447.754" fill="#CFD8DC" width="108.256" height="70.812"/>
					<rect x="442.454" y="447.754" fill="#CFD8DC" width="108.256" height="70.812"/>
					<rect x="566.455" y="447.754" fill="#CFD8DC" width="108.256" height="70.812"/>
					<rect x="690.455" y="447.754" fill="#CFD8DC" width="108.256" height="70.812"/>
					<rect x="814.455" y="447.754" fill="#FFFFFF" width="108.257" height="70.812"/>
				</g>
				<g>
					<g>
						<g>
							<g>
								<g>
									<g>
										<text transform="matrix(1 0 0 1 735.418 581.0156)" fill="#78909C" font-family="'OpenSans'" font-size="50.8952">5</text>
										<text transform="matrix(1 0 0 1 859.0938 581.0273)" fill="#78909C" font-family="'OpenSans'" font-size="50.8952">6</text>
									</g>
									<text transform="matrix(1 0 0 1 242.9185 645.4648)" fill="#78909C" font-family="'OpenSans'" font-size="50.8952">8</text>
									<text transform="matrix(1 0 0 1 366.1646 645.4648)" fill="#78909C" font-family="'OpenSans'" font-size="50.8952">9</text>
									<text transform="matrix(1 0 0 1 476.3525 645.4648)" fill="#78909C" font-family="'OpenSans'" font-size="50.8952">10</text>
									<text transform="matrix(1 0 0 1 599.583 645.4648)" fill="#78909C" font-family="'OpenSans'" font-size="50.8952">11</text>
									<text transform="matrix(1 0 0 1 242.9185 581.0195)" fill="#78909C" font-family="'OpenSans'" font-size="50.8952">1</text>
									<text transform="matrix(1 0 0 1 366.1646 581.0156)" fill="#78909C" font-family="'OpenSans'" font-size="50.8952">2</text>
									<text transform="matrix(1 0 0 1 489.4063 581.0195)" fill="#78909C" font-family="'OpenSans'" font-size="50.8952">3</text>
									<text transform="matrix(1 0 0 1 612.6367 581.0156)" fill="#78909C" font-family="'OpenSans'" font-size="50.8952">4</text>
									<text transform="matrix(1 0 0 1 722.8135 645.4648)" fill="#78909C" font-family="'OpenSans'" font-size="50.8952">12</text>
									<text transform="matrix(1 0 0 1 846.04 645.4648)" fill="#78909C" font-family="'OpenSans'" font-size="50.8952">13</text>
									<text transform="matrix(1 0 0 1 102.5088 709.9141)" fill="#78909C" font-family="'OpenSans'" font-size="50.8952">14</text>
									<text transform="matrix(1 0 0 1 229.9072 709.9141)" fill="#78909C" font-family="'OpenSans'" font-size="50.8952">15</text>
									<text transform="matrix(1 0 0 1 353.1494 709.9141)" fill="#78909C" font-family="'OpenSans'" font-size="50.8952">16</text>
									<text transform="matrix(1 0 0 1 476.4111 709.9141)" fill="#78909C" font-family="'OpenSans'" font-size="50.8952">17</text>
									<text transform="matrix(1 0 0 1 599.5322 709.9141)" fill="#78909C" font-family="'OpenSans'" font-size="50.8952">18</text>
									<text transform="matrix(1 0 0 1 722.8018 709.9141)" fill="#78909C" font-family="'OpenSans'" font-size="50.8952">19</text>
									<text transform="matrix(1 0 0 1 846.04 709.9141)" fill="#78909C" font-family="'OpenSans'" font-size="50.8952">20</text>
									<text transform="matrix(1 0 0 1 102.5088 774.3672)" fill="#78909C" font-family="'OpenSans'" font-size="50.8952">21</text>
									<text transform="matrix(1 0 0 1 229.9072 774.3672)" fill="#78909C" font-family="'OpenSans'" font-size="50.8952">22</text>
									<text transform="matrix(1 0 0 1 353.1494 774.3672)" fill="#78909C" font-family="'OpenSans'" font-size="50.8952">23</text>
									<text transform="matrix(1 0 0 1 476.4111 774.3672)" fill="#78909C" font-family="'OpenSans'" font-size="50.8952">24</text>
									<text transform="matrix(1 0 0 1 353.1494 838.8164)" fill="#78909C" font-family="'OpenSans'" font-size="50.8952">30</text>
									<text transform="matrix(1 0 0 1 476.4111 838.8164)" fill="#78909C" font-family="'OpenSans'" font-size="50.8952">31</text>
									<text transform="matrix(1 0 0 1 599.5322 774.3672)" fill="#78909C" font-family="'OpenSans'" font-size="50.8952">25</text>
									<text transform="matrix(1 0 0 1 722.8135 774.3672)" fill="#78909C" font-family="'OpenSans'" font-size="50.8952">26</text>
									<text transform="matrix(1 0 0 1 846.04 774.3672)" fill="#78909C" font-family="'OpenSans'" font-size="50.8952">27</text>
									<text transform="matrix(1 0 0 1 102.5088 838.8047)" fill="#78909C" font-family="'OpenSans'" font-size="50.8952">28</text>
									<text transform="matrix(1 0 0 1 229.9072 838.8164)" fill="#78909C" font-family="'OpenSans'" font-size="50.8952">29</text>
									<g>
										
											<text transform="matrix(1 0 0 1 95.4761 497.3242)" fill="#ECEFF1" font-family="'OpenSans-Semibold'" font-size="50.8952">Su</text>
										
											<text transform="matrix(1 0 0 1 215.394 497.3242)" fill="#ECEFF1" font-family="'OpenSans-Semibold'" font-size="50.8952">Mo</text>
										
											<text transform="matrix(1 0 0 1 346.8076 497.3242)" fill="#ECEFF1" font-family="'OpenSans-Semibold'" font-size="50.8952">Tu</text>
										
											<text transform="matrix(1 0 0 1 462.8594 497.3242)" fill="#ECEFF1" font-family="'OpenSans-Semibold'" font-size="50.8952">We</text>
										
											<text transform="matrix(1 0 0 1 594.0068 497.3242)" fill="#ECEFF1" font-family="'OpenSans-Semibold'" font-size="50.8952">Th</text>
										
											<text transform="matrix(1 0 0 1 723.5283 497.3242)" fill="#ECEFF1" font-family="'OpenSans-Semibold'" font-size="50.8952">Fr</text>
										
											<text transform="matrix(1 0 0 1 843.2627 497.3242)" fill="#ECEFF1" font-family="'OpenSans-Semibold'" font-size="50.8952">Sa</text>
									</g>
									<text transform="matrix(1 0 0 1 115.106 642.7305)" fill="#78909C" font-family="'OpenSans'" font-size="50.8952">7</text>
								</g>
							</g>
						</g>
					</g>
				</g>
			</g>
		</g>
		<g>
			<g>
				<text transform="matrix(1 0 0 1 685.6309 140.5156)" fill="#B0BEC5" font-family="'OpenSans-Bold'" font-size="66.9346">AUGUST</text>
			</g>
		</g>
		<g>
			<g>
				<text transform="matrix(1 0 0 1 579.3457 335.7969)" fill="#B0BEC5" font-family="'Bebas'" font-size="167.3366">2017</text>
			</g>
		</g>
		<text transform="matrix(1 0 0 1 70.4531 336.2734)" fill="#FFFFFF" font-family="'Arcon-Regular'" font-size="345.8291">08</text>
	</g>
</g>
</svg>
