<?xml version="1.0" encoding="utf-8"?>
<!-- Generator: Adobe Illustrator 16.0.0, SVG Export Plug-In . SVG Version: 6.00 Build 0)  -->
<!DOCTYPE svg PUBLIC "-//W3C//DTD SVG 1.1//EN" "http://www.w3.org/Graphics/SVG/1.1/DTD/svg11.dtd">
<svg version="1.1" id="Layer_1" xmlns="http://www.w3.org/2000/svg" xmlns:xlink="http://www.w3.org/1999/xlink" x="0px" y="0px"
	 width="1000px" height="1000px" viewBox="0 0 1000 1000" enable-background="new 0 0 1000 1000" xml:space="preserve">
<g>
	<g>
		<g>
			<rect x="20" y="-0.824" fill="#ECEFF1" width="967.012" height="1000.486"/>
			<rect x="20" y="-0.824" fill="#FFA726" width="967.012" height="394.245"/>
		</g>
		<line fill="none" stroke="#E87E0A" stroke-width="2" stroke-miterlimit="10" x1="531.4" y1="83.056" x2="531.4" y2="334.961"/>
	</g>
	<g>
		<g>
			<g>
				<rect x="77.299" y="445.683" fill="#FFFFFF" width="108.276" height="70.825"/>
				<rect x="201.322" y="445.683" fill="#CFD8DC" width="108.276" height="70.825"/>
				<rect x="325.345" y="445.683" fill="#CFD8DC" width="108.276" height="70.825"/>
				<rect x="449.368" y="445.683" fill="#CFD8DC" width="108.276" height="70.825"/>
				<rect x="573.391" y="445.683" fill="#CFD8DC" width="108.276" height="70.825"/>
				<rect x="697.414" y="445.683" fill="#CFD8DC" width="108.276" height="70.825"/>
				<rect x="821.438" y="445.683" fill="#FFFFFF" width="108.275" height="70.825"/>
			</g>
			<g>
				<g>
					<g>
						<g>
							<text transform="matrix(1 0 0 1 742.3848 578.6133)" fill="#78909C" font-family="'OpenSans'" font-size="50.9045">2</text>
							<text transform="matrix(1 0 0 1 866.0918 578.6172)" fill="#78909C" font-family="'OpenSans'" font-size="50.9045">3</text>
						</g>
						<text transform="matrix(1 0 0 1 249.7988 643.0781)" fill="#78909C" font-family="'OpenSans'" font-size="50.9045">5</text>
						<text transform="matrix(1 0 0 1 373.0371 643.0742)" fill="#78909C" font-family="'OpenSans'" font-size="50.9045">6</text>
						<text transform="matrix(1 0 0 1 496.3066 643.0781)" fill="#78909C" font-family="'OpenSans'" font-size="50.9045">7</text>
						<text transform="matrix(1 0 0 1 619.5645 643.0742)" fill="#78909C" font-family="'OpenSans'" font-size="50.9045">8</text>
						<text transform="matrix(1 0 0 1 619.5645 578.6094)" fill="#78909C" font-family="'OpenSans'" font-size="50.9045">1</text>
						<text transform="matrix(1 0 0 1 742.8223 643.0781)" fill="#78909C" font-family="'OpenSans'" font-size="50.9045">9</text>
						<text transform="matrix(1 0 0 1 853.0352 643.0742)" fill="#78909C" font-family="'OpenSans'" font-size="50.9045">10</text>
						<text transform="matrix(1 0 0 1 109.3398 707.5352)" fill="#78909C" font-family="'OpenSans'" font-size="50.9045">11</text>
						<text transform="matrix(1 0 0 1 236.7578 707.5352)" fill="#78909C" font-family="'OpenSans'" font-size="50.9045">12</text>
						<text transform="matrix(1 0 0 1 360.0469 707.5352)" fill="#78909C" font-family="'OpenSans'" font-size="50.9045">13</text>
						<text transform="matrix(1 0 0 1 483.3164 707.5352)" fill="#78909C" font-family="'OpenSans'" font-size="50.9045">14</text>
						<text transform="matrix(1 0 0 1 606.4727 707.5352)" fill="#78909C" font-family="'OpenSans'" font-size="50.9045">15</text>
						<text transform="matrix(1 0 0 1 729.75 707.5352)" fill="#78909C" font-family="'OpenSans'" font-size="50.9045">16</text>
						<text transform="matrix(1 0 0 1 853.0352 707.5352)" fill="#78909C" font-family="'OpenSans'" font-size="50.9045">17</text>
						<text transform="matrix(1 0 0 1 109.3398 771.9961)" fill="#78909C" font-family="'OpenSans'" font-size="50.9045">18</text>
						<text transform="matrix(1 0 0 1 236.7578 771.9961)" fill="#78909C" font-family="'OpenSans'" font-size="50.9045">19</text>
						<text transform="matrix(1 0 0 1 360.0469 771.9961)" fill="#78909C" font-family="'OpenSans'" font-size="50.9045">20</text>
						<text transform="matrix(1 0 0 1 483.3164 771.9961)" fill="#78909C" font-family="'OpenSans'" font-size="50.9045">21</text>
						<text transform="matrix(1 0 0 1 606.4727 771.9961)" fill="#78909C" font-family="'OpenSans'" font-size="50.9045">22</text>
						<text transform="matrix(1 0 0 1 729.7539 771.9961)" fill="#78909C" font-family="'OpenSans'" font-size="50.9045">23</text>
						<text transform="matrix(1 0 0 1 853.0352 771.9961)" fill="#78909C" font-family="'OpenSans'" font-size="50.9045">24</text>
						<text transform="matrix(1 0 0 1 109.3398 836.4531)" fill="#78909C" font-family="'OpenSans'" font-size="50.9045">25</text>
						<text transform="matrix(1 0 0 1 236.7578 836.4531)" fill="#78909C" font-family="'OpenSans'" font-size="50.9045">26</text>
						<text transform="matrix(1 0 0 1 360.0469 836.4531)" fill="#78909C" font-family="'OpenSans'" font-size="50.9045">27</text>
						<text transform="matrix(1 0 0 1 483.3164 836.4531)" fill="#78909C" font-family="'OpenSans'" font-size="50.9045">28</text>
						<text transform="matrix(1 0 0 1 606.4727 836.4531)" fill="#78909C" font-family="'OpenSans'" font-size="50.9045">29</text>
						<text transform="matrix(1 0 0 1 729.7539 836.4531)" fill="#78909C" font-family="'OpenSans'" font-size="50.9045">30</text>
						<text transform="matrix(1 0 0 1 848.7773 836.4531)" fill="#78909C" font-family="'OpenSans'" font-size="50.9045">31</text>
						<g>
							<text transform="matrix(1 0 0 1 102.3267 494.9063)" fill="#ECEFF1" font-family="'OpenSans-Semibold'" font-size="50.9045">Su</text>
							<text transform="matrix(1 0 0 1 222.251 494.9063)" fill="#ECEFF1" font-family="'OpenSans-Semibold'" font-size="50.9045">Mo</text>
							<text transform="matrix(1 0 0 1 353.6855 494.9063)" fill="#ECEFF1" font-family="'OpenSans-Semibold'" font-size="50.9045">Tu</text>
							<text transform="matrix(1 0 0 1 469.7476 494.9063)" fill="#ECEFF1" font-family="'OpenSans-Semibold'" font-size="50.9045">We</text>
							<text transform="matrix(1 0 0 1 600.9316 494.9063)" fill="#ECEFF1" font-family="'OpenSans-Semibold'" font-size="50.9045">Th</text>
							<text transform="matrix(1 0 0 1 730.4814 494.9063)" fill="#ECEFF1" font-family="'OpenSans-Semibold'" font-size="50.9045">Fr</text>
							<text transform="matrix(1 0 0 1 850.2471 494.9063)" fill="#ECEFF1" font-family="'OpenSans-Semibold'" font-size="50.9045">Sa</text>
						</g>
						<text transform="matrix(1 0 0 1 121.9473 640.3438)" fill="#78909C" font-family="'OpenSans'" font-size="50.9045">4</text>
					</g>
				</g>
			</g>
		</g>
		<g>
			<text transform="matrix(1 0 0 1 621.3594 138.3906)" fill="#E87E0A" font-family="'OpenSans-Bold'" font-size="66.9469">DECEMBER</text>
		</g>
		<g>
			<text transform="matrix(1 0 0 1 586.2832 333.7031)" fill="#E87E0A" font-family="'Bebas'" font-size="167.3672">2017</text>
		</g>
		<text transform="matrix(1 0 0 1 77.3203 334.6641)" fill="#FFFFFF" font-family="'Arcon-Regular'" font-size="345.8922">12</text>
	</g>
</g>
</svg>
