<?xml version="1.0" encoding="utf-8"?>
<!-- Generator: Adobe Illustrator 16.0.0, SVG Export Plug-In . SVG Version: 6.00 Build 0)  -->
<!DOCTYPE svg PUBLIC "-//W3C//DTD SVG 1.1//EN" "http://www.w3.org/Graphics/SVG/1.1/DTD/svg11.dtd">
<svg version="1.1" id="Layer_1" xmlns="http://www.w3.org/2000/svg" xmlns:xlink="http://www.w3.org/1999/xlink" x="0px" y="0px"
	 width="1000px" height="1000px" viewBox="0 0 1000 1000" enable-background="new 0 0 1000 1000" xml:space="preserve">
<g>
	<g>
		<g>
			<rect x="16.291" y="3.016" fill="#ECEFF1" width="963.08" height="996.421"/>
			<rect x="16.291" y="3.016" fill="#26C6DA" width="963.08" height="392.637"/>
		</g>
		
			<line fill="none" stroke="#0097A7" stroke-width="2" stroke-miterlimit="10" x1="525.611" y1="86.557" x2="525.611" y2="337.431"/>
	</g>
	<g>
		<g>
			<g>
				<rect x="73.354" y="449.136" fill="#FFFFFF" width="107.836" height="70.538"/>
				<rect x="196.874" y="449.136" fill="#CFD8DC" width="107.836" height="70.538"/>
				<rect x="320.393" y="449.136" fill="#CFD8DC" width="107.836" height="70.538"/>
				<rect x="443.911" y="449.136" fill="#CFD8DC" width="107.837" height="70.538"/>
				<rect x="567.436" y="449.136" fill="#CFD8DC" width="107.832" height="70.538"/>
				<rect x="690.949" y="449.136" fill="#CFD8DC" width="107.842" height="70.538"/>
				<rect x="814.475" y="449.136" fill="#FFFFFF" width="107.831" height="70.538"/>
			</g>
			<g>
				<g>
					<g>
						<g>
							<text transform="matrix(1 0 0 1 735.7588 581.5293)" fill="#78909C" font-family="'OpenSans-Semibold'" font-size="50.6977">5</text>
							<text transform="matrix(1 0 0 1 858.9375 581.5332)" fill="#78909C" font-family="'OpenSans-Semibold'" font-size="50.6977">6</text>
						</g>
						<text transform="matrix(1 0 0 1 245.1802 645.7324)" fill="#78909C" font-family="'OpenSans'" font-size="50.6977">8</text>
						<text transform="matrix(1 0 0 1 367.9224 645.7324)" fill="#78909C" font-family="'OpenSans'" font-size="50.6977">9</text>
						<text transform="matrix(1 0 0 1 477.6821 645.7324)" fill="#78909C" font-family="'OpenSans'" font-size="50.6977">10</text>
						<text transform="matrix(1 0 0 1 600.4326 645.7324)" fill="#78909C" font-family="'OpenSans'" font-size="50.6977">11</text>
						<text transform="matrix(1 0 0 1 245.1802 581.5293)" fill="#78909C" font-family="'OpenSans-Semibold'" font-size="50.6977">1</text>
						<text transform="matrix(1 0 0 1 367.9224 581.5293)" fill="#78909C" font-family="'OpenSans-Semibold'" font-size="50.6977">2</text>
						<text transform="matrix(1 0 0 1 490.686 581.5293)" fill="#78909C" font-family="'OpenSans-Semibold'" font-size="50.6977">3</text>
						<text transform="matrix(1 0 0 1 613.4355 581.5293)" fill="#78909C" font-family="'OpenSans-Semibold'" font-size="50.6977">4</text>
						<text transform="matrix(1 0 0 1 723.1885 645.7324)" fill="#78909C" font-family="'OpenSans'" font-size="50.6977">12</text>
						<text transform="matrix(1 0 0 1 845.9346 645.7324)" fill="#78909C" font-family="'OpenSans'" font-size="50.6977">13</text>
						<text transform="matrix(1 0 0 1 105.2876 709.9238)" fill="#78909C" font-family="'OpenSans'" font-size="50.6977">14</text>
						<text transform="matrix(1 0 0 1 232.1909 709.9238)" fill="#78909C" font-family="'OpenSans'" font-size="50.6977">15</text>
						<text transform="matrix(1 0 0 1 354.9546 709.9238)" fill="#78909C" font-family="'OpenSans'" font-size="50.6977">16</text>
						<text transform="matrix(1 0 0 1 477.7368 709.9238)" fill="#78909C" font-family="'OpenSans'" font-size="50.6977">17</text>
						<text transform="matrix(1 0 0 1 600.3994 709.9238)" fill="#78909C" font-family="'OpenSans'" font-size="50.6977">18</text>
						<text transform="matrix(1 0 0 1 723.167 709.9238)" fill="#78909C" font-family="'OpenSans'" font-size="50.6977">19</text>
						<text transform="matrix(1 0 0 1 845.9346 709.9238)" fill="#78909C" font-family="'OpenSans'" font-size="50.6977">20</text>
						<text transform="matrix(1 0 0 1 105.2876 774.1191)" fill="#78909C" font-family="'OpenSans'" font-size="50.6977">21</text>
						<text transform="matrix(1 0 0 1 232.1909 774.1191)" fill="#78909C" font-family="'OpenSans'" font-size="50.6977">22</text>
						<text transform="matrix(1 0 0 1 354.9546 774.1191)" fill="#78909C" font-family="'OpenSans'" font-size="50.6977">23</text>
						<text transform="matrix(1 0 0 1 477.7368 774.1191)" fill="#78909C" font-family="'OpenSans'" font-size="50.6977">24</text>
						<text transform="matrix(1 0 0 1 600.3994 774.1191)" fill="#78909C" font-family="'OpenSans'" font-size="50.6977">25</text>
						<text transform="matrix(1 0 0 1 723.1777 774.1191)" fill="#78909C" font-family="'OpenSans'" font-size="50.6977">26</text>
						<text transform="matrix(1 0 0 1 845.9346 774.1191)" fill="#78909C" font-family="'OpenSans'" font-size="50.6977">27</text>
						<text transform="matrix(1 0 0 1 105.2876 838.3184)" fill="#78909C" font-family="'OpenSans'" font-size="50.6977">28</text>
						<text transform="matrix(1 0 0 1 232.1909 838.3184)" fill="#78909C" font-family="'OpenSans'" font-size="50.6977">29</text>
						<g>
							<text transform="matrix(1 0 0 1 98.2803 498.1597)" fill="#ECEFF1" font-family="'OpenSans-Semibold'" font-size="50.6977">Su</text>
							<text transform="matrix(1 0 0 1 217.7397 498.1597)" fill="#ECEFF1" font-family="'OpenSans-Semibold'" font-size="50.6977">Mo</text>
							<text transform="matrix(1 0 0 1 348.6377 498.1597)" fill="#ECEFF1" font-family="'OpenSans-Semibold'" font-size="50.6977">Tu</text>
							<text transform="matrix(1 0 0 1 464.2363 498.1597)" fill="#ECEFF1" font-family="'OpenSans-Semibold'" font-size="50.6977">We</text>
							<text transform="matrix(1 0 0 1 594.8887 498.1597)" fill="#ECEFF1" font-family="'OpenSans-Semibold'" font-size="50.6977">Th</text>
							<text transform="matrix(1 0 0 1 723.8955 498.1597)" fill="#ECEFF1" font-family="'OpenSans-Semibold'" font-size="50.6977">Fr</text>
							<text transform="matrix(1 0 0 1 843.165 498.1597)" fill="#ECEFF1" font-family="'OpenSans-Semibold'" font-size="50.6977">Sa</text>
						</g>
						<text transform="matrix(1 0 0 1 117.8335 643.0039)" fill="#78909C" font-family="'OpenSans'" font-size="50.6977">7</text>
					</g>
				</g>
			</g>
		</g>
		<g>
			<g>
				<text transform="matrix(1 0 0 1 629.1396 143.0835)" fill="#0097A7" font-family="'OpenSans-Bold'" font-size="66.6749">FEBRUaRY</text>
			</g>
		</g>
		<g>
			<g>
				<text transform="matrix(1 0 0 1 580.2725 337.6099)" fill="#0097A7" font-family="'Bebas'" font-size="166.6872">2017</text>
			</g>
		</g>
		<text transform="matrix(1 0 0 1 73.3535 337.1333)" fill="#FFFFFF" font-family="'Arcon-Regular'" font-size="344.4869">02</text>
	</g>
</g>
</svg>
