<?xml version="1.0" encoding="utf-8"?>
<!-- Generator: Adobe Illustrator 16.0.0, SVG Export Plug-In . SVG Version: 6.00 Build 0)  -->
<!DOCTYPE svg PUBLIC "-//W3C//DTD SVG 1.1//EN" "http://www.w3.org/Graphics/SVG/1.1/DTD/svg11.dtd">
<svg version="1.1" id="Layer_1" xmlns="http://www.w3.org/2000/svg" xmlns:xlink="http://www.w3.org/1999/xlink" x="0px" y="0px"
	 width="1000px" height="1000px" viewBox="0 0 1000 1000" enable-background="new 0 0 1000 1000" xml:space="preserve">
<g>
	<g>
		<g>
			<rect x="20" y="4.182" fill="#ECEFF1" width="966.099" height="999.548"/>
			<rect x="20" y="4.182" fill="#F06292" width="966.099" height="393.872"/>
		</g>
		<line fill="none" stroke="#D81B60" stroke-width="2" stroke-miterlimit="10" x1="530.92" y1="87.985" x2="530.92" y2="339.649"/>
	</g>
	<g>
		<g>
			<g>
				<rect x="77.242" y="451.698" fill="#FFFFFF" width="108.174" height="70.757"/>
				<rect x="201.148" y="451.698" fill="#CFD8DC" width="108.175" height="70.757"/>
				<rect x="325.055" y="451.698" fill="#CFD8DC" width="108.175" height="70.757"/>
				<rect x="448.965" y="451.698" fill="#CFD8DC" width="108.169" height="70.757"/>
				<rect x="572.871" y="451.698" fill="#CFD8DC" width="108.176" height="70.757"/>
				<rect x="696.777" y="451.698" fill="#CFD8DC" width="108.176" height="70.757"/>
				<rect x="820.685" y="451.698" fill="#FFFFFF" width="108.176" height="70.757"/>
			</g>
			<text transform="matrix(1 0 0 1 738.1162 584.5068)" fill="#78909C" font-family="'OpenSans'" font-size="50.8567">1</text>
			<text transform="matrix(1 0 0 1 861.7236 584.5098)" fill="#78909C" font-family="'OpenSans'" font-size="50.8567">2</text>
			<text transform="matrix(1 0 0 1 861.7236 584.5098)" fill="#78909C" font-family="'OpenSans'" font-size="50.8567">2</text>
			<text transform="matrix(1 0 0 1 246.0098 648.9121)" fill="#78909C" font-family="'OpenSans'" font-size="50.8567">4</text>
			<text transform="matrix(1 0 0 1 369.1504 648.9121)" fill="#78909C" font-family="'OpenSans'" font-size="50.8567">5</text>
			<text transform="matrix(1 0 0 1 492.3027 648.9121)" fill="#78909C" font-family="'OpenSans'" font-size="50.8567">6</text>
			<text transform="matrix(1 0 0 1 615.4287 648.9121)" fill="#78909C" font-family="'OpenSans'" font-size="50.8567">7</text>
			<text transform="matrix(1 0 0 1 738.5771 648.9121)" fill="#78909C" font-family="'OpenSans'" font-size="50.8567">8</text>
			<text transform="matrix(1 0 0 1 861.7236 648.9121)" fill="#78909C" font-family="'OpenSans'" font-size="50.8567">9</text>
			<text transform="matrix(1 0 0 1 105.6929 713.3008)" fill="#78909C" font-family="'OpenSans'" font-size="50.8567">10</text>
			<text transform="matrix(1 0 0 1 232.9849 713.3057)" fill="#78909C" font-family="'OpenSans'" font-size="50.8567">11</text>
			<text transform="matrix(1 0 0 1 356.146 713.3008)" fill="#78909C" font-family="'OpenSans'" font-size="50.8567">12</text>
			<text transform="matrix(1 0 0 1 479.3071 713.3057)" fill="#78909C" font-family="'OpenSans'" font-size="50.8567">13</text>
			<text transform="matrix(1 0 0 1 602.3604 713.3008)" fill="#78909C" font-family="'OpenSans'" font-size="50.8567">14</text>
			<text transform="matrix(1 0 0 1 725.5166 713.3057)" fill="#78909C" font-family="'OpenSans'" font-size="50.8567">15</text>
			<text transform="matrix(1 0 0 1 848.6787 713.3008)" fill="#78909C" font-family="'OpenSans'" font-size="50.8567">16</text>
			<text transform="matrix(1 0 0 1 105.6929 777.7109)" fill="#78909C" font-family="'OpenSans'" font-size="50.8567">17</text>
			<text transform="matrix(1 0 0 1 232.9849 777.7109)" fill="#78909C" font-family="'OpenSans'" font-size="50.8567">18</text>
			<text transform="matrix(1 0 0 1 356.146 777.7109)" fill="#78909C" font-family="'OpenSans'" font-size="50.8567">19</text>
			<text transform="matrix(1 0 0 1 479.3071 777.7109)" fill="#78909C" font-family="'OpenSans'" font-size="50.8567">20</text>
			<text transform="matrix(1 0 0 1 602.3604 777.7109)" fill="#78909C" font-family="'OpenSans'" font-size="50.8567">21</text>
			<text transform="matrix(1 0 0 1 725.5244 777.7109)" fill="#78909C" font-family="'OpenSans'" font-size="50.8567">22</text>
			<text transform="matrix(1 0 0 1 848.6787 777.7109)" fill="#78909C" font-family="'OpenSans'" font-size="50.8567">23</text>
			<text transform="matrix(1 0 0 1 848.6787 842.1006)" fill="#78909C" font-family="'OpenSans'" font-size="50.8567">30</text>
			<text transform="matrix(1 0 0 1 105.6929 842.1006)" fill="#78909C" font-family="'OpenSans'" font-size="50.8567">24</text>
			<text transform="matrix(1 0 0 1 232.9849 842.1006)" fill="#78909C" font-family="'OpenSans'" font-size="50.8567">25</text>
			<text transform="matrix(1 0 0 1 356.146 842.1006)" fill="#78909C" font-family="'OpenSans'" font-size="50.8567">26</text>
			<text transform="matrix(1 0 0 1 479.3071 842.1006)" fill="#78909C" font-family="'OpenSans'" font-size="50.8567">27</text>
			<text transform="matrix(1 0 0 1 602.3604 842.1006)" fill="#78909C" font-family="'OpenSans'" font-size="50.8567">28</text>
			<text transform="matrix(1 0 0 1 725.5244 842.1006)" fill="#78909C" font-family="'OpenSans'" font-size="50.8567">29</text>
			<text transform="matrix(1 0 0 1 105.6929 906.4932)" fill="#78909C" font-family="'OpenSans'" font-size="50.8567">31</text>
			<g>
				<text transform="matrix(1 0 0 1 98.6812 500.8735)" fill="#ECEFF1" font-family="'OpenSans-Semibold'" font-size="50.8567">Su</text>
				<text transform="matrix(1 0 0 1 218.4927 500.8735)" fill="#ECEFF1" font-family="'OpenSans-Semibold'" font-size="50.8567">Mo</text>
				<text transform="matrix(1 0 0 1 349.8081 500.8735)" fill="#ECEFF1" font-family="'OpenSans-Semibold'" font-size="50.8567">Tu</text>
				<text transform="matrix(1 0 0 1 465.7646 500.8735)" fill="#ECEFF1" font-family="'OpenSans-Semibold'" font-size="50.8567">We</text>
				<text transform="matrix(1 0 0 1 596.8242 500.8735)" fill="#ECEFF1" font-family="'OpenSans-Semibold'" font-size="50.8567">Th</text>
				<text transform="matrix(1 0 0 1 726.251 500.8735)" fill="#ECEFF1" font-family="'OpenSans-Semibold'" font-size="50.8567">Fr</text>
				<text transform="matrix(1 0 0 1 845.8936 500.8735)" fill="#ECEFF1" font-family="'OpenSans-Semibold'" font-size="50.8567">Sa</text>
			</g>
			<text transform="matrix(1 0 0 1 118.2744 646.1758)" fill="#78909C" font-family="'OpenSans'" font-size="50.8567">3</text>
		</g>
		<g>
			<text transform="matrix(1 0 0 1 662.7959 144.6851)" fill="#D81B60" font-family="'OpenSans-Bold'" font-size="66.8841">January</text>
		</g>
		<g>
			<text transform="matrix(1 0 0 1 585.752 339.8228)" fill="#D81B60" font-family="'Bebas'" font-size="167.2102">2017</text>
		</g>
		<text transform="matrix(1 0 0 1 77.2368 339.3452)" fill="#FFFFFF" font-family="'Arcon-Regular'" font-size="345.5677">01</text>
	</g>
</g>
</svg>
