<?xml version="1.0" encoding="utf-8"?>
<!-- Generator: Adobe Illustrator 16.0.0, SVG Export Plug-In . SVG Version: 6.00 Build 0)  -->
<!DOCTYPE svg PUBLIC "-//W3C//DTD SVG 1.1//EN" "http://www.w3.org/Graphics/SVG/1.1/DTD/svg11.dtd">
<svg version="1.1" id="Layer_1" xmlns="http://www.w3.org/2000/svg" xmlns:xlink="http://www.w3.org/1999/xlink" x="0px" y="0px"
	 width="1000px" height="1000px" viewBox="0 0 1000 1000" enable-background="new 0 0 1000 1000" xml:space="preserve">
<g>
	<g>
		<g>
			<rect x="9.706" y="-0.626" fill="#ECEFF1" width="965.621" height="999.047"/>
			<rect x="9.706" y="-0.626" fill="#26C6DA" width="965.621" height="393.678"/>
		</g>
		
			<line fill="none" stroke="#0097A7" stroke-width="2" stroke-miterlimit="10" x1="562.301" y1="83.132" x2="562.301" y2="334.675"/>
	</g>
	<g>
		<g>
			<g>
				<g>
					<rect x="66.917" y="445.713" fill="#FFFFFF" width="108.12" height="70.723"/>
					<rect x="190.761" y="445.713" fill="#CFD8DC" width="108.12" height="70.723"/>
					<rect x="314.611" y="445.713" fill="#CFD8DC" width="108.115" height="70.723"/>
					<rect x="438.456" y="445.713" fill="#CFD8DC" width="108.121" height="70.723"/>
					<rect x="562.301" y="445.713" fill="#CFD8DC" width="108.12" height="70.723"/>
					<rect x="686.146" y="445.713" fill="#CFD8DC" width="108.12" height="70.723"/>
					<rect x="809.99" y="445.713" fill="#FFFFFF" width="108.12" height="70.723"/>
				</g>
				<g>
					<g>
						<g>
							<g>
								<g>
									<g>
										<text transform="matrix(1 0 0 1 731.0557 578.457)" fill="#78909C" font-family="'OpenSans'" font-size="50.8313">1</text>
										<text transform="matrix(1 0 0 1 854.5791 578.4609)" fill="#78909C" font-family="'OpenSans'" font-size="50.8313">2</text>
									</g>
									<text transform="matrix(1 0 0 1 239.1772 642.8242)" fill="#78909C" font-family="'OpenSans'" font-size="50.8313">4</text>
									<text transform="matrix(1 0 0 1 362.2632 642.8242)" fill="#78909C" font-family="'OpenSans'" font-size="50.8313">5</text>
									<text transform="matrix(1 0 0 1 485.3447 642.8242)" fill="#78909C" font-family="'OpenSans'" font-size="50.8313">6</text>
									<text transform="matrix(1 0 0 1 608.4268 642.8242)" fill="#78909C" font-family="'OpenSans'" font-size="50.8313">7</text>
									<text transform="matrix(1 0 0 1 731.501 642.8242)" fill="#78909C" font-family="'OpenSans'" font-size="50.8313">8</text>
									<text transform="matrix(1 0 0 1 854.5791 642.8242)" fill="#78909C" font-family="'OpenSans'" font-size="50.8313">9</text>
									<text transform="matrix(1 0 0 1 98.936 707.1836)" fill="#78909C" font-family="'OpenSans'" font-size="50.8313">10</text>
									<text transform="matrix(1 0 0 1 226.1665 707.1836)" fill="#78909C" font-family="'OpenSans'" font-size="50.8313">11</text>
									<text transform="matrix(1 0 0 1 349.2642 707.1836)" fill="#78909C" font-family="'OpenSans'" font-size="50.8313">12</text>
									<text transform="matrix(1 0 0 1 472.3701 707.1836)" fill="#78909C" font-family="'OpenSans'" font-size="50.8313">13</text>
									<text transform="matrix(1 0 0 1 595.3506 707.1836)" fill="#78909C" font-family="'OpenSans'" font-size="50.8313">14</text>
									<text transform="matrix(1 0 0 1 718.4561 707.1836)" fill="#78909C" font-family="'OpenSans'" font-size="50.8313">15</text>
									<text transform="matrix(1 0 0 1 841.542 707.1836)" fill="#78909C" font-family="'OpenSans'" font-size="50.8313">16</text>
									<text transform="matrix(1 0 0 1 98.936 771.5469)" fill="#78909C" font-family="'OpenSans'" font-size="50.8313">17</text>
									<text transform="matrix(1 0 0 1 226.1665 771.5469)" fill="#78909C" font-family="'OpenSans'" font-size="50.8313">18</text>
									<text transform="matrix(1 0 0 1 349.2642 771.5469)" fill="#78909C" font-family="'OpenSans'" font-size="50.8313">19</text>
									<text transform="matrix(1 0 0 1 472.3701 771.5469)" fill="#78909C" font-family="'OpenSans'" font-size="50.8313">20</text>
									<text transform="matrix(1 0 0 1 595.3506 771.5469)" fill="#78909C" font-family="'OpenSans'" font-size="50.8313">21</text>
									<text transform="matrix(1 0 0 1 718.4639 771.5469)" fill="#78909C" font-family="'OpenSans'" font-size="50.8313">22</text>
									<text transform="matrix(1 0 0 1 841.542 771.5469)" fill="#78909C" font-family="'OpenSans'" font-size="50.8313">23</text>
									<text transform="matrix(1 0 0 1 841.542 835.9023)" fill="#78909C" font-family="'OpenSans'" font-size="50.8313">30</text>
									<text transform="matrix(1 0 0 1 98.936 835.9023)" fill="#78909C" font-family="'OpenSans'" font-size="50.8313">24</text>
									<text transform="matrix(1 0 0 1 226.1665 835.9102)" fill="#78909C" font-family="'OpenSans'" font-size="50.8313">25</text>
									<text transform="matrix(1 0 0 1 349.2642 835.9023)" fill="#78909C" font-family="'OpenSans'" font-size="50.8313">26</text>
									<text transform="matrix(1 0 0 1 472.3701 835.9102)" fill="#78909C" font-family="'OpenSans'" font-size="50.8313">27</text>
									<text transform="matrix(1 0 0 1 595.3506 835.9023)" fill="#78909C" font-family="'OpenSans'" font-size="50.8313">28</text>
									<text transform="matrix(1 0 0 1 718.4639 835.9102)" fill="#78909C" font-family="'OpenSans'" font-size="50.8313">29</text>
									<text transform="matrix(1 0 0 1 98.936 900.2773)" fill="#78909C" font-family="'OpenSans'" font-size="50.8313">31</text>
									<g>
										
											<text transform="matrix(1 0 0 1 91.9194 494.8555)" fill="#ECEFF1" font-family="'OpenSans-Semibold'" font-size="50.8313">Su</text>
										
											<text transform="matrix(1 0 0 1 211.6836 494.8555)" fill="#ECEFF1" font-family="'OpenSans-Semibold'" font-size="50.8313">Mo</text>
										
											<text transform="matrix(1 0 0 1 342.9272 494.8555)" fill="#ECEFF1" font-family="'OpenSans-Semibold'" font-size="50.8313">Tu</text>
										
											<text transform="matrix(1 0 0 1 458.8203 494.8555)" fill="#ECEFF1" font-family="'OpenSans-Semibold'" font-size="50.8313">We</text>
										
											<text transform="matrix(1 0 0 1 589.8174 494.8555)" fill="#ECEFF1" font-family="'OpenSans-Semibold'" font-size="50.8313">Th</text>
										
											<text transform="matrix(1 0 0 1 719.1826 494.8555)" fill="#ECEFF1" font-family="'OpenSans-Semibold'" font-size="50.8313">Fr</text>
										
											<text transform="matrix(1 0 0 1 838.7666 494.8555)" fill="#ECEFF1" font-family="'OpenSans-Semibold'" font-size="50.8313">Sa</text>
									</g>
									<text transform="matrix(1 0 0 1 111.5288 640.082)" fill="#78909C" font-family="'OpenSans'" font-size="50.8313">3</text>
								</g>
							</g>
						</g>
					</g>
				</g>
			</g>
		</g>
		<g>
			<text transform="matrix(1 0 0 1 782.4063 138.8555)" fill="#0097A7" font-family="'OpenSans-Bold'" font-size="66.8505">JULY</text>
		</g>
		<g>
			<text transform="matrix(1 0 0 1 575.1758 333.8906)" fill="#0097A7" font-family="'Bebas'" font-size="167.1264">2017</text>
		</g>
		<text transform="matrix(1 0 0 1 66.918 334.3672)" fill="#FFFFFF" font-family="'Arcon-Regular'" font-size="345.3946">07</text>
	</g>
</g>
</svg>
