<?xml version="1.0" encoding="utf-8"?>
<!-- Generator: Adobe Illustrator 16.0.0, SVG Export Plug-In . SVG Version: 6.00 Build 0)  -->
<!DOCTYPE svg PUBLIC "-//W3C//DTD SVG 1.1//EN" "http://www.w3.org/Graphics/SVG/1.1/DTD/svg11.dtd">
<svg version="1.1" id="Layer_1" xmlns="http://www.w3.org/2000/svg" xmlns:xlink="http://www.w3.org/1999/xlink" x="0px" y="0px"
	 width="1000px" height="1000px" viewBox="0 0 1000 1000" enable-background="new 0 0 1000 1000" xml:space="preserve">
<g>
	<g>
		<g>
			<rect x="15.762" fill="#ECEFF1" width="967.092" height="1000.572"/>
			<rect x="15.762" fill="#EC407A" width="967.092" height="394.279"/>
		</g>
		
			<line fill="none" stroke="#AD1457" stroke-width="2" stroke-miterlimit="10" x1="555.103" y1="83.887" x2="555.103" y2="335.813"/>
	</g>
	<g>
		<g>
			<g>
				<rect x="73.063" y="447.498" fill="#FFFFFF" width="108.285" height="70.831"/>
				<rect x="197.097" y="447.498" fill="#CFD8DC" width="108.285" height="70.831"/>
				<rect x="321.133" y="447.498" fill="#CFD8DC" width="108.282" height="70.831"/>
				<rect x="445.167" y="447.498" fill="#CFD8DC" width="108.288" height="70.831"/>
				<rect x="569.203" y="447.498" fill="#CFD8DC" width="108.279" height="70.831"/>
				<rect x="693.231" y="447.498" fill="#CFD8DC" width="108.29" height="70.831"/>
				<rect x="817.27" y="447.498" fill="#FFFFFF" width="108.28" height="70.831"/>
			</g>
			<g>
				<g>
					<g>
						<g>
							<g>
								<g>
									
										<text transform="matrix(1 0 0 1 738.207 580.4512)" fill="#78909C" font-family="'OpenSans-Semibold'" font-size="50.9088">3</text>
									
										<text transform="matrix(1 0 0 1 861.9229 580.4512)" fill="#78909C" font-family="'OpenSans-Semibold'" font-size="50.9088">4</text>
								</g>
								<text transform="matrix(1 0 0 1 245.5835 644.9199)" fill="#78909C" font-family="'OpenSans'" font-size="50.9088">6</text>
								<text transform="matrix(1 0 0 1 368.8423 644.9199)" fill="#78909C" font-family="'OpenSans'" font-size="50.9088">7</text>
								<text transform="matrix(1 0 0 1 492.1211 644.9199)" fill="#78909C" font-family="'OpenSans'" font-size="50.9088">8</text>
								<text transform="matrix(1 0 0 1 615.3887 644.9199)" fill="#78909C" font-family="'OpenSans'" font-size="50.9088">9</text>
								
									<text transform="matrix(1 0 0 1 492.1211 580.4512)" fill="#78909C" font-family="'OpenSans-Semibold'" font-size="50.9088">1</text>
								
									<text transform="matrix(1 0 0 1 615.3887 580.4512)" fill="#78909C" font-family="'OpenSans-Semibold'" font-size="50.9088">2</text>
								<text transform="matrix(1 0 0 1 725.6016 644.9199)" fill="#78909C" font-family="'OpenSans'" font-size="50.9088">10</text>
								<text transform="matrix(1 0 0 1 848.8652 644.9199)" fill="#78909C" font-family="'OpenSans'" font-size="50.9088">11</text>
								<text transform="matrix(1 0 0 1 105.1304 709.375)" fill="#78909C" font-family="'OpenSans'" font-size="50.9088">12</text>
								<text transform="matrix(1 0 0 1 232.5581 709.3789)" fill="#78909C" font-family="'OpenSans'" font-size="50.9088">13</text>
								<text transform="matrix(1 0 0 1 355.8374 709.375)" fill="#78909C" font-family="'OpenSans'" font-size="50.9088">14</text>
								<text transform="matrix(1 0 0 1 479.1328 709.3789)" fill="#78909C" font-family="'OpenSans'" font-size="50.9088">15</text>
								<text transform="matrix(1 0 0 1 602.3027 709.375)" fill="#78909C" font-family="'OpenSans'" font-size="50.9088">16</text>
								<text transform="matrix(1 0 0 1 725.582 709.3789)" fill="#78909C" font-family="'OpenSans'" font-size="50.9088">17</text>
								<text transform="matrix(1 0 0 1 848.8652 709.375)" fill="#78909C" font-family="'OpenSans'" font-size="50.9088">18</text>
								<text transform="matrix(1 0 0 1 105.1304 773.8398)" fill="#78909C" font-family="'OpenSans'" font-size="50.9088">19</text>
								<text transform="matrix(1 0 0 1 232.5581 773.8398)" fill="#78909C" font-family="'OpenSans'" font-size="50.9088">20</text>
								<text transform="matrix(1 0 0 1 355.8374 773.8398)" fill="#78909C" font-family="'OpenSans'" font-size="50.9088">21</text>
								<text transform="matrix(1 0 0 1 479.1328 773.8398)" fill="#78909C" font-family="'OpenSans'" font-size="50.9088">22</text>
								<text transform="matrix(1 0 0 1 602.3027 773.8398)" fill="#78909C" font-family="'OpenSans'" font-size="50.9088">23</text>
								<text transform="matrix(1 0 0 1 725.5938 773.8398)" fill="#78909C" font-family="'OpenSans'" font-size="50.9088">24</text>
								<text transform="matrix(1 0 0 1 848.8652 773.8398)" fill="#78909C" font-family="'OpenSans'" font-size="50.9088">25</text>
								<text transform="matrix(1 0 0 1 105.1304 838.3066)" fill="#78909C" font-family="'OpenSans'" font-size="50.9088">26</text>
								<text transform="matrix(1 0 0 1 232.5581 838.3066)" fill="#78909C" font-family="'OpenSans'" font-size="50.9088">27</text>
								<text transform="matrix(1 0 0 1 355.8374 838.3066)" fill="#78909C" font-family="'OpenSans'" font-size="50.9088">28</text>
								<text transform="matrix(1 0 0 1 479.1328 838.3066)" fill="#78909C" font-family="'OpenSans'" font-size="50.9088">29</text>
								<text transform="matrix(1 0 0 1 602.3027 838.3066)" fill="#78909C" font-family="'OpenSans'" font-size="50.9088">30</text>
								<g>
									
										<text transform="matrix(1 0 0 1 98.0933 496.7271)" fill="#ECEFF1" font-family="'OpenSans-Semibold'" font-size="50.9088">Su</text>
									
										<text transform="matrix(1 0 0 1 218.0396 496.7271)" fill="#ECEFF1" font-family="'OpenSans-Semibold'" font-size="50.9088">Mo</text>
									
										<text transform="matrix(1 0 0 1 349.4829 496.7271)" fill="#ECEFF1" font-family="'OpenSans-Semibold'" font-size="50.9088">Tu</text>
									
										<text transform="matrix(1 0 0 1 465.5591 496.7271)" fill="#ECEFF1" font-family="'OpenSans-Semibold'" font-size="50.9088">We</text>
									
										<text transform="matrix(1 0 0 1 596.752 496.7271)" fill="#ECEFF1" font-family="'OpenSans-Semibold'" font-size="50.9088">Th</text>
									
										<text transform="matrix(1 0 0 1 726.3154 496.7271)" fill="#ECEFF1" font-family="'OpenSans-Semibold'" font-size="50.9088">Fr</text>
									
										<text transform="matrix(1 0 0 1 846.0791 496.7271)" fill="#ECEFF1" font-family="'OpenSans-Semibold'" font-size="50.9088">Sa</text>
								</g>
								<text transform="matrix(1 0 0 1 117.7314 642.166)" fill="#78909C" font-family="'OpenSans'" font-size="50.9088">5</text>
							</g>
						</g>
					</g>
				</g>
			</g>
		</g>
		<g>
			<text transform="matrix(1 0 0 1 780.4678 140.1787)" fill="#AD1457" font-family="'OpenSans-Bold'" font-size="66.9526">JUNE</text>
		</g>
		<g>
			<text transform="matrix(1 0 0 1 582.0947 335.5063)" fill="#AD1457" font-family="'Bebas'" font-size="167.3814">2017</text>
		</g>
		<text transform="matrix(1 0 0 1 73.0854 335.5063)" fill="#FFFFFF" font-family="'Arcon-Regular'" font-size="345.9217">06</text>
	</g>
</g>
</svg>
