<?xml version="1.0" encoding="utf-8"?>
<!-- Generator: Adobe Illustrator 16.0.0, SVG Export Plug-In . SVG Version: 6.00 Build 0)  -->
<!DOCTYPE svg PUBLIC "-//W3C//DTD SVG 1.1//EN" "http://www.w3.org/Graphics/SVG/1.1/DTD/svg11.dtd">
<svg version="1.1" id="Layer_1" xmlns="http://www.w3.org/2000/svg" xmlns:xlink="http://www.w3.org/1999/xlink" x="0px" y="0px"
	 width="1000px" height="1000px" viewBox="0 0 1000 1000" enable-background="new 0 0 1000 1000" xml:space="preserve">
<g>
	<g>
		<g>
			<rect x="14.986" y="0.411" fill="#ECEFF1" width="967.867" height="1001.369"/>
			<rect x="14.986" y="0.411" fill="#D4E157" width="967.867" height="394.591"/>
		</g>
		<line fill="none" stroke="#AFB42B" stroke-width="2" stroke-miterlimit="10" x1="549.174" y1="84.367" x2="549.174" y2="336.49"/>
	</g>
	<g>
		<g>
			<g>
				<rect x="72.335" y="448.749" fill="#FFFFFF" width="108.367" height="70.887"/>
				<rect x="196.468" y="448.749" fill="#CFD8DC" width="108.367" height="70.887"/>
				<rect x="320.601" y="448.749" fill="#CFD8DC" width="108.372" height="70.887"/>
				<rect x="444.734" y="448.749" fill="#CFD8DC" width="108.372" height="70.887"/>
				<rect x="568.867" y="448.749" fill="#CFD8DC" width="108.371" height="70.887"/>
				<rect x="693" y="448.749" fill="#CFD8DC" width="108.371" height="70.887"/>
				<rect x="817.133" y="448.749" fill="#FFFFFF" width="108.371" height="70.887"/>
			</g>
			<g>
				<g>
					<g>
						<g>
							<text transform="matrix(1 0 0 1 738.0137 581.793)" fill="#78909C" font-family="'OpenSans'" font-size="50.9495">4</text>
							<text transform="matrix(1 0 0 1 861.8379 581.8008)" fill="#78909C" font-family="'OpenSans'" font-size="50.9495">5</text>
						</g>
						<text transform="matrix(1 0 0 1 245.002 646.3164)" fill="#78909C" font-family="'OpenSans'" font-size="50.9495">7</text>
						<text transform="matrix(1 0 0 1 368.3574 646.3164)" fill="#78909C" font-family="'OpenSans'" font-size="50.9495">8</text>
						<text transform="matrix(1 0 0 1 491.7324 646.3164)" fill="#78909C" font-family="'OpenSans'" font-size="50.9495">9</text>
						<text transform="matrix(1 0 0 1 602.0234 646.3164)" fill="#78909C" font-family="'OpenSans'" font-size="50.9495">10</text>
						<text transform="matrix(1 0 0 1 371.2832 581.7891)" fill="#78909C" font-family="'OpenSans'" font-size="50.9495">1</text>
						<text transform="matrix(1 0 0 1 494.6621 581.793)" fill="#78909C" font-family="'OpenSans'" font-size="50.9495">2</text>
						<text transform="matrix(1 0 0 1 618.0098 581.7891)" fill="#78909C" font-family="'OpenSans'" font-size="50.9495">3</text>
						<text transform="matrix(1 0 0 1 725.3945 646.3164)" fill="#78909C" font-family="'OpenSans'" font-size="50.9495">11</text>
						<text transform="matrix(1 0 0 1 848.7695 646.3164)" fill="#78909C" font-family="'OpenSans'" font-size="50.9495">12</text>
						<text transform="matrix(1 0 0 1 104.4302 710.8281)" fill="#78909C" font-family="'OpenSans'" font-size="50.9495">13</text>
						<text transform="matrix(1 0 0 1 231.9575 710.8281)" fill="#78909C" font-family="'OpenSans'" font-size="50.9495">14</text>
						<text transform="matrix(1 0 0 1 355.3403 710.8281)" fill="#78909C" font-family="'OpenSans'" font-size="50.9495">15</text>
						<text transform="matrix(1 0 0 1 478.731 710.8281)" fill="#78909C" font-family="'OpenSans'" font-size="50.9495">16</text>
						<text transform="matrix(1 0 0 1 601.9922 710.8281)" fill="#78909C" font-family="'OpenSans'" font-size="50.9495">17</text>
						<text transform="matrix(1 0 0 1 725.3789 710.8281)" fill="#78909C" font-family="'OpenSans'" font-size="50.9495">18</text>
						<text transform="matrix(1 0 0 1 848.7695 710.8281)" fill="#78909C" font-family="'OpenSans'" font-size="50.9495">19</text>
						<text transform="matrix(1 0 0 1 104.4302 775.3477)" fill="#78909C" font-family="'OpenSans'" font-size="50.9495">20</text>
						<text transform="matrix(1 0 0 1 231.9575 775.3477)" fill="#78909C" font-family="'OpenSans'" font-size="50.9495">21</text>
						<text transform="matrix(1 0 0 1 355.3403 775.3477)" fill="#78909C" font-family="'OpenSans'" font-size="50.9495">22</text>
						<text transform="matrix(1 0 0 1 478.731 775.3477)" fill="#78909C" font-family="'OpenSans'" font-size="50.9495">23</text>
						<text transform="matrix(1 0 0 1 601.9922 775.3477)" fill="#78909C" font-family="'OpenSans'" font-size="50.9495">24</text>
						<text transform="matrix(1 0 0 1 725.3945 775.3477)" fill="#78909C" font-family="'OpenSans'" font-size="50.9495">25</text>
						<text transform="matrix(1 0 0 1 848.7695 775.3477)" fill="#78909C" font-family="'OpenSans'" font-size="50.9495">26</text>
						<text transform="matrix(1 0 0 1 104.4302 839.8594)" fill="#78909C" font-family="'OpenSans'" font-size="50.9495">27</text>
						<text transform="matrix(1 0 0 1 231.9575 839.8633)" fill="#78909C" font-family="'OpenSans'" font-size="50.9495">28</text>
						<text transform="matrix(1 0 0 1 355.3403 839.8594)" fill="#78909C" font-family="'OpenSans'" font-size="50.9495">29</text>
						<text transform="matrix(1 0 0 1 478.731 839.8633)" fill="#78909C" font-family="'OpenSans'" font-size="50.9495">30</text>
						<text transform="matrix(1 0 0 1 601.9922 839.8594)" fill="#78909C" font-family="'OpenSans'" font-size="50.9495">31</text>
						<g>
							<text transform="matrix(1 0 0 1 97.3892 498.0078)" fill="#ECEFF1" font-family="'OpenSans-Semibold'" font-size="50.9495">Su</text>
							<text transform="matrix(1 0 0 1 217.4395 498.0078)" fill="#ECEFF1" font-family="'OpenSans-Semibold'" font-size="50.9495">Mo</text>
							<text transform="matrix(1 0 0 1 348.9746 498.0078)" fill="#ECEFF1" font-family="'OpenSans-Semibold'" font-size="50.9495">Tu</text>
							<text transform="matrix(1 0 0 1 465.1548 498.0078)" fill="#ECEFF1" font-family="'OpenSans-Semibold'" font-size="50.9495">We</text>
							<text transform="matrix(1 0 0 1 596.4551 498.0078)" fill="#ECEFF1" font-family="'OpenSans-Semibold'" font-size="50.9495">Th</text>
							<text transform="matrix(1 0 0 1 726.1191 498.0078)" fill="#ECEFF1" font-family="'OpenSans-Semibold'" font-size="50.9495">Fr</text>
							<text transform="matrix(1 0 0 1 845.9746 498.0078)" fill="#ECEFF1" font-family="'OpenSans-Semibold'" font-size="50.9495">Sa</text>
						</g>
						<text transform="matrix(1 0 0 1 117.0293 643.5625)" fill="#78909C" font-family="'OpenSans'" font-size="50.9495">6</text>
					</g>
				</g>
			</g>
		</g>
		<g>
			<text transform="matrix(1 0 0 1 712.0254 141.1758)" fill="#AFB42B" font-family="'OpenSans-Bold'" font-size="67.0061">MARCH</text>
		</g>
		<g>
			<text transform="matrix(1 0 0 1 581.7725 336.668)" fill="#AFB42B" font-family="'Bebas'" font-size="167.5152">2017</text>
		</g>
		<text transform="matrix(1 0 0 1 72.3555 336.1914)" fill="#FFFFFF" font-family="'Arcon-Regular'" font-size="346.1982">03</text>
	</g>
</g>
</svg>
