<?xml version="1.0" encoding="utf-8"?>
<!-- Generator: Adobe Illustrator 16.0.0, SVG Export Plug-In . SVG Version: 6.00 Build 0)  -->
<!DOCTYPE svg PUBLIC "-//W3C//DTD SVG 1.1//EN" "http://www.w3.org/Graphics/SVG/1.1/DTD/svg11.dtd">
<svg version="1.1" id="Layer_1" xmlns="http://www.w3.org/2000/svg" xmlns:xlink="http://www.w3.org/1999/xlink" x="0px" y="0px"
	 width="1000px" height="1000px" viewBox="0 0 1000 1000" enable-background="new 0 0 1000 1000" xml:space="preserve">
<g>
	<g>
		<g>
			<rect x="17.573" fill="#ECEFF1" width="965.168" height="998.585"/>
			<rect x="17.573" fill="#FDD835" width="965.168" height="393.496"/>
		</g>
		<line fill="none" stroke="#F9A825" stroke-width="2" stroke-miterlimit="10" x1="554.189" y1="83.72" x2="554.189" y2="335.147"/>
	</g>
	<g>
		<g>
			<g>
				<g>
					<rect x="74.76" y="446.609" fill="#FFFFFF" width="108.07" height="70.69"/>
					<rect x="198.548" y="446.609" fill="#CFD8DC" width="108.07" height="70.69"/>
					<rect x="322.334" y="446.609" fill="#CFD8DC" width="108.07" height="70.69"/>
					<rect x="446.125" y="446.609" fill="#CFD8DC" width="108.064" height="70.69"/>
					<rect x="569.912" y="446.609" fill="#CFD8DC" width="108.07" height="70.69"/>
					<rect x="693.699" y="446.609" fill="#CFD8DC" width="108.07" height="70.69"/>
					<rect x="817.487" y="446.609" fill="#FFFFFF" width="108.069" height="70.69"/>
				</g>
				<g>
					<g>
						<g>
							<g>
								<g>
									<g>
										<g>
											<text transform="matrix(1 0 0 1 738.583 579.3018)" fill="#78909C" font-family="'OpenSans'" font-size="50.8077">6</text>
											<text transform="matrix(1 0 0 1 862.0518 579.3018)" fill="#78909C" font-family="'OpenSans'" font-size="50.8077">7</text>
										</g>
										<text transform="matrix(1 0 0 1 246.9341 643.6455)" fill="#78909C" font-family="'OpenSans'" font-size="50.8077">9</text>
										<text transform="matrix(1 0 0 1 356.9355 643.6328)" fill="#78909C" font-family="'OpenSans'" font-size="50.8077">10</text>
										<text transform="matrix(1 0 0 1 479.9648 643.6455)" fill="#78909C" font-family="'OpenSans'" font-size="50.8077">11</text>
										<text transform="matrix(1 0 0 1 602.9844 643.6328)" fill="#78909C" font-family="'OpenSans'" font-size="50.8077">12</text>
										<text transform="matrix(1 0 0 1 726.0078 643.6455)" fill="#78909C" font-family="'OpenSans'" font-size="50.8077">13</text>
										<text transform="matrix(1 0 0 1 849.0205 643.6328)" fill="#78909C" font-family="'OpenSans'" font-size="50.8077">14</text>
										<text transform="matrix(1 0 0 1 106.7607 707.9707)" fill="#78909C" font-family="'OpenSans'" font-size="50.8077">15</text>
										<text transform="matrix(1 0 0 1 233.9414 707.9707)" fill="#78909C" font-family="'OpenSans'" font-size="50.8077">16</text>
										<text transform="matrix(1 0 0 1 356.9814 707.9707)" fill="#78909C" font-family="'OpenSans'" font-size="50.8077">17</text>
										<text transform="matrix(1 0 0 1 480.0234 707.9707)" fill="#78909C" font-family="'OpenSans'" font-size="50.8077">18</text>
										<text transform="matrix(1 0 0 1 602.9424 707.9707)" fill="#78909C" font-family="'OpenSans'" font-size="50.8077">19</text>
										<text transform="matrix(1 0 0 1 725.9912 707.9707)" fill="#78909C" font-family="'OpenSans'" font-size="50.8077">20</text>
										<text transform="matrix(1 0 0 1 849.0205 707.9707)" fill="#78909C" font-family="'OpenSans'" font-size="50.8077">21</text>
										<text transform="matrix(1 0 0 1 106.7607 772.3076)" fill="#78909C" font-family="'OpenSans'" font-size="50.8077">22</text>
										<text transform="matrix(1 0 0 1 233.9414 772.3076)" fill="#78909C" font-family="'OpenSans'" font-size="50.8077">23</text>
										<text transform="matrix(1 0 0 1 356.9814 772.3076)" fill="#78909C" font-family="'OpenSans'" font-size="50.8077">24</text>
										<text transform="matrix(1 0 0 1 480.0234 772.3076)" fill="#78909C" font-family="'OpenSans'" font-size="50.8077">25</text>
										<text transform="matrix(1 0 0 1 602.9424 772.3076)" fill="#78909C" font-family="'OpenSans'" font-size="50.8077">26</text>
										<text transform="matrix(1 0 0 1 726.001 772.3076)" fill="#78909C" font-family="'OpenSans'" font-size="50.8077">27</text>
										<text transform="matrix(1 0 0 1 849.0205 772.3076)" fill="#78909C" font-family="'OpenSans'" font-size="50.8077">28</text>
										<text transform="matrix(1 0 0 1 106.7607 836.6357)" fill="#78909C" font-family="'OpenSans'" font-size="50.8077">29</text>
										<text transform="matrix(1 0 0 1 233.9414 836.6426)" fill="#78909C" font-family="'OpenSans'" font-size="50.8077">30</text>
										<text transform="matrix(1 0 0 1 356.9814 836.6357)" fill="#78909C" font-family="'OpenSans'" font-size="50.8077">31</text>
										<g>
											
												<text transform="matrix(1 0 0 1 99.7422 495.7373)" fill="#ECEFF1" font-family="'OpenSans-Semibold'" font-size="50.8077">Su</text>
											
												<text transform="matrix(1 0 0 1 219.458 495.7373)" fill="#ECEFF1" font-family="'OpenSans-Semibold'" font-size="50.8077">Mo</text>
											
												<text transform="matrix(1 0 0 1 350.6455 495.7373)" fill="#ECEFF1" font-family="'OpenSans-Semibold'" font-size="50.8077">Tu</text>
											
												<text transform="matrix(1 0 0 1 466.4834 495.7373)" fill="#ECEFF1" font-family="'OpenSans-Semibold'" font-size="50.8077">We</text>
											
												<text transform="matrix(1 0 0 1 597.4238 495.7373)" fill="#ECEFF1" font-family="'OpenSans-Semibold'" font-size="50.8077">Th</text>
											
												<text transform="matrix(1 0 0 1 726.7236 495.7373)" fill="#ECEFF1" font-family="'OpenSans-Semibold'" font-size="50.8077">Fr</text>
											
												<text transform="matrix(1 0 0 1 846.2432 495.7373)" fill="#ECEFF1" font-family="'OpenSans-Semibold'" font-size="50.8077">Sa</text>
										</g>
										<text transform="matrix(1 0 0 1 119.3433 640.8975)" fill="#78909C" font-family="'OpenSans'" font-size="50.8077">8</text>
										<text transform="matrix(1 0 0 1 246.9341 576.4268)" fill="#78909C" font-family="'OpenSans'" font-size="50.8077">2</text>
										<text transform="matrix(1 0 0 1 369.9673 576.4268)" fill="#78909C" font-family="'OpenSans'" font-size="50.8077">3</text>
										<text transform="matrix(1 0 0 1 492.9966 576.4268)" fill="#78909C" font-family="'OpenSans'" font-size="50.8077">4</text>
										<text transform="matrix(1 0 0 1 616.0156 576.4268)" fill="#78909C" font-family="'OpenSans'" font-size="50.8077">5</text>
										<text transform="matrix(1 0 0 1 119.3433 573.6885)" fill="#78909C" font-family="'OpenSans'" font-size="50.8077">1</text>
									</g>
								</g>
							</g>
						</g>
					</g>
				</g>
			</g>
		</g>
		<g>
			<g>
				<text transform="matrix(1 0 0 1 794.7949 139.9004)" fill="#F9A825" font-family="'OpenSans-Bold'" font-size="66.8196">MAY</text>
			</g>
		</g>
		<g>
			<g>
				<text transform="matrix(1 0 0 1 582.7842 334.8477)" fill="#F9A825" font-family="'Bebas'" font-size="167.049">2017</text>
			</g>
		</g>
		<text transform="matrix(1 0 0 1 74.7646 334.8408)" fill="#FFFFFF" font-family="'Arcon-Regular'" font-size="345.2347">05</text>
	</g>
</g>
</svg>
