<?xml version="1.0" encoding="utf-8"?>
<!-- Generator: Adobe Illustrator 16.0.0, SVG Export Plug-In . SVG Version: 6.00 Build 0)  -->
<!DOCTYPE svg PUBLIC "-//W3C//DTD SVG 1.1//EN" "http://www.w3.org/Graphics/SVG/1.1/DTD/svg11.dtd">
<svg version="1.1" id="Layer_1" xmlns="http://www.w3.org/2000/svg" xmlns:xlink="http://www.w3.org/1999/xlink" x="0px" y="0px"
	 width="1000px" height="1000px" viewBox="0 0 1000 1000" enable-background="new 0 0 1000 1000" xml:space="preserve">
<g>
	<g>
		<g>
			<rect x="20" fill="#ECEFF1" width="966.542" height="1000"/>
			<rect x="20" fill="#AFB42B" width="966.542" height="394.053"/>
		</g>
		
			<line fill="none" stroke="#827717" stroke-width="2" stroke-miterlimit="10" x1="508.848" y1="83.838" x2="508.848" y2="335.621"/>
	</g>
	<g>
		<g>
			<g>
				<rect x="77.266" y="446.29" fill="#FFFFFF" width="108.223" height="70.791"/>
				<rect x="201.228" y="446.29" fill="#CFD8DC" width="108.224" height="70.791"/>
				<rect x="325.196" y="446.29" fill="#CFD8DC" width="108.218" height="70.791"/>
				<rect x="449.159" y="446.29" fill="#CFD8DC" width="108.224" height="70.791"/>
				<rect x="573.122" y="446.29" fill="#CFD8DC" width="108.224" height="70.791"/>
				<rect x="697.085" y="446.29" fill="#CFD8DC" width="108.223" height="70.791"/>
				<rect x="821.048" y="446.29" fill="#FFFFFF" width="108.223" height="70.791"/>
			</g>
			<g>
				<g>
					<g>
						<g>
							<g>
								<text transform="matrix(1 0 0 1 742.0244 582.5078)" fill="#78909C" font-family="'OpenSans'" font-size="50.8797">4</text>
								<text transform="matrix(1 0 0 1 865.6689 582.5156)" fill="#78909C" font-family="'OpenSans'" font-size="50.8797">5</text>
							</g>
							<text transform="matrix(1 0 0 1 249.6841 646.9414)" fill="#78909C" font-family="'OpenSans'" font-size="50.8797">7</text>
							<text transform="matrix(1 0 0 1 372.8794 646.9414)" fill="#78909C" font-family="'OpenSans'" font-size="50.8797">8</text>
							<text transform="matrix(1 0 0 1 496.0864 646.9414)" fill="#78909C" font-family="'OpenSans'" font-size="50.8797">9</text>
							<text transform="matrix(1 0 0 1 606.2275 646.9414)" fill="#78909C" font-family="'OpenSans'" font-size="50.8797">10</text>
							<text transform="matrix(1 0 0 1 375.7935 582.5039)" fill="#78909C" font-family="'OpenSans'" font-size="50.8797">1</text>
							<text transform="matrix(1 0 0 1 499.0122 582.5039)" fill="#78909C" font-family="'OpenSans'" font-size="50.8797">2</text>
							<text transform="matrix(1 0 0 1 622.1963 582.5039)" fill="#78909C" font-family="'OpenSans'" font-size="50.8797">3</text>
							<text transform="matrix(1 0 0 1 729.4229 646.9414)" fill="#78909C" font-family="'OpenSans'" font-size="50.8797">11</text>
							<text transform="matrix(1 0 0 1 852.6182 646.9414)" fill="#78909C" font-family="'OpenSans'" font-size="50.8797">12</text>
							<text transform="matrix(1 0 0 1 109.3135 711.3672)" fill="#78909C" font-family="'OpenSans'" font-size="50.8797">13</text>
							<text transform="matrix(1 0 0 1 236.6611 711.3672)" fill="#78909C" font-family="'OpenSans'" font-size="50.8797">14</text>
							<text transform="matrix(1 0 0 1 359.876 711.3672)" fill="#78909C" font-family="'OpenSans'" font-size="50.8797">15</text>
							<text transform="matrix(1 0 0 1 483.0947 711.3672)" fill="#78909C" font-family="'OpenSans'" font-size="50.8797">16</text>
							<text transform="matrix(1 0 0 1 606.1963 711.3672)" fill="#78909C" font-family="'OpenSans'" font-size="50.8797">17</text>
							<text transform="matrix(1 0 0 1 729.4111 711.3672)" fill="#78909C" font-family="'OpenSans'" font-size="50.8797">18</text>
							<text transform="matrix(1 0 0 1 852.6182 711.3672)" fill="#78909C" font-family="'OpenSans'" font-size="50.8797">19</text>
							<text transform="matrix(1 0 0 1 109.3135 775.7891)" fill="#78909C" font-family="'OpenSans'" font-size="50.8797">20</text>
							<text transform="matrix(1 0 0 1 236.6611 775.7891)" fill="#78909C" font-family="'OpenSans'" font-size="50.8797">21</text>
							<text transform="matrix(1 0 0 1 359.876 775.7891)" fill="#78909C" font-family="'OpenSans'" font-size="50.8797">22</text>
							<text transform="matrix(1 0 0 1 483.0947 775.7891)" fill="#78909C" font-family="'OpenSans'" font-size="50.8797">23</text>
							<text transform="matrix(1 0 0 1 606.1963 775.7891)" fill="#78909C" font-family="'OpenSans'" font-size="50.8797">24</text>
							<text transform="matrix(1 0 0 1 729.4229 775.7891)" fill="#78909C" font-family="'OpenSans'" font-size="50.8797">25</text>
							<text transform="matrix(1 0 0 1 852.6182 775.7891)" fill="#78909C" font-family="'OpenSans'" font-size="50.8797">26</text>
							<text transform="matrix(1 0 0 1 109.3135 840.207)" fill="#78909C" font-family="'OpenSans'" font-size="50.8797">27</text>
							<text transform="matrix(1 0 0 1 236.6611 840.2148)" fill="#78909C" font-family="'OpenSans'" font-size="50.8797">28</text>
							<text transform="matrix(1 0 0 1 359.876 840.207)" fill="#78909C" font-family="'OpenSans'" font-size="50.8797">29</text>
							<text transform="matrix(1 0 0 1 483.0947 840.2148)" fill="#78909C" font-family="'OpenSans'" font-size="50.8797">30</text>
							<g>
								
									<text transform="matrix(1 0 0 1 102.2847 498.8242)" fill="#ECEFF1" font-family="'OpenSans-Semibold'" font-size="50.8797">Su</text>
								
									<text transform="matrix(1 0 0 1 222.1626 498.8242)" fill="#ECEFF1" font-family="'OpenSans-Semibold'" font-size="50.8797">Mo</text>
								
									<text transform="matrix(1 0 0 1 353.5269 498.8242)" fill="#ECEFF1" font-family="'OpenSans-Semibold'" font-size="50.8797">Tu</text>
								
									<text transform="matrix(1 0 0 1 469.5298 498.8242)" fill="#ECEFF1" font-family="'OpenSans-Semibold'" font-size="50.8797">We</text>
								
									<text transform="matrix(1 0 0 1 600.6592 498.8242)" fill="#ECEFF1" font-family="'OpenSans-Semibold'" font-size="50.8797">Th</text>
								
									<text transform="matrix(1 0 0 1 730.1436 498.8242)" fill="#ECEFF1" font-family="'OpenSans-Semibold'" font-size="50.8797">Fr</text>
								
									<text transform="matrix(1 0 0 1 849.8408 498.8242)" fill="#ECEFF1" font-family="'OpenSans-Semibold'" font-size="50.8797">Sa</text>
							</g>
							<text transform="matrix(1 0 0 1 121.9028 644.2031)" fill="#78909C" font-family="'OpenSans'" font-size="50.8797">6</text>
						</g>
					</g>
				</g>
			</g>
		</g>
		<g>
			<g>
				<text transform="matrix(1 0 0 1 609.8877 139.1445)" fill="#827717" font-family="'OpenSans-Bold'" font-size="66.9143">NOVEMBER</text>
			</g>
		</g>
		<g>
			<g>
				<text transform="matrix(1 0 0 1 586.0049 334.3633)" fill="#827717" font-family="'Bebas'" font-size="167.2858">2017</text>
			</g>
		</g>
		<text transform="matrix(1 0 0 1 77.2656 335.3203)" fill="#FFFFFF" font-family="'Arcon-Regular'" font-size="345.724">11</text>
	</g>
</g>
</svg>
