<?xml version="1.0" encoding="utf-8"?>
<!-- Generator: Adobe Illustrator 16.0.0, SVG Export Plug-In . SVG Version: 6.00 Build 0)  -->
<!DOCTYPE svg PUBLIC "-//W3C//DTD SVG 1.1//EN" "http://www.w3.org/Graphics/SVG/1.1/DTD/svg11.dtd">
<svg version="1.1" id="Layer_1" xmlns="http://www.w3.org/2000/svg" xmlns:xlink="http://www.w3.org/1999/xlink" x="0px" y="0px"
	 width="1000px" height="1000px" viewBox="0 0 1000 1000" enable-background="new 0 0 1000 1000" xml:space="preserve">
<g>
	<g>
		<g>
			<rect x="10" fill="#ECEFF1" width="965.888" height="999.326"/>
			<rect x="10" fill="#FF7043" width="965.888" height="393.788"/>
		</g>
		
			<line fill="none" stroke="#E64A19" stroke-width="2" stroke-miterlimit="10" x1="520.805" y1="83.782" x2="520.805" y2="335.395"/>
	</g>
	<g>
		<g>
			<g>
				<g>
					<rect x="67.229" y="445.989" fill="#FFFFFF" width="108.15" height="70.743"/>
					<rect x="191.109" y="445.989" fill="#CFD8DC" width="108.15" height="70.743"/>
					<rect x="314.988" y="445.989" fill="#CFD8DC" width="108.15" height="70.743"/>
					<rect x="438.867" y="445.989" fill="#CFD8DC" width="108.15" height="70.743"/>
					<rect x="562.752" y="445.989" fill="#CFD8DC" width="108.145" height="70.743"/>
					<rect x="686.626" y="445.989" fill="#CFD8DC" width="108.155" height="70.743"/>
					<rect x="810.511" y="445.989" fill="#FFFFFF" width="108.145" height="70.743"/>
				</g>
				<g>
					<g>
						<g>
							<g>
								<g>
									<g>
										<text transform="matrix(1 0 0 1 855.1152 579.1328)" fill="#78909C" font-family="'OpenSans'" font-size="50.8455">1</text>
									</g>
									<text transform="matrix(1 0 0 1 239.5327 643.5234)" fill="#78909C" font-family="'OpenSans'" font-size="50.8455">3</text>
									<text transform="matrix(1 0 0 1 362.6538 643.5156)" fill="#78909C" font-family="'OpenSans'" font-size="50.8455">4</text>
									<text transform="matrix(1 0 0 1 485.771 643.5234)" fill="#78909C" font-family="'OpenSans'" font-size="50.8455">5</text>
									<text transform="matrix(1 0 0 1 608.8848 643.5156)" fill="#78909C" font-family="'OpenSans'" font-size="50.8455">6</text>
									<text transform="matrix(1 0 0 1 732.0098 643.5234)" fill="#78909C" font-family="'OpenSans'" font-size="50.8455">7</text>
									<text transform="matrix(1 0 0 1 855.1152 643.5156)" fill="#78909C" font-family="'OpenSans'" font-size="50.8455">8</text>
									<text transform="matrix(1 0 0 1 112.3022 707.8945)" fill="#78909C" font-family="'OpenSans'" font-size="50.8455">9</text>
									<text transform="matrix(1 0 0 1 226.5303 707.8984)" fill="#78909C" font-family="'OpenSans'" font-size="50.8455">10</text>
									<text transform="matrix(1 0 0 1 349.6553 707.8945)" fill="#78909C" font-family="'OpenSans'" font-size="50.8455">11</text>
									<text transform="matrix(1 0 0 1 472.7959 707.8984)" fill="#78909C" font-family="'OpenSans'" font-size="50.8455">12</text>
									<text transform="matrix(1 0 0 1 595.8154 707.8945)" fill="#78909C" font-family="'OpenSans'" font-size="50.8455">13</text>
									<text transform="matrix(1 0 0 1 718.9521 707.8984)" fill="#78909C" font-family="'OpenSans'" font-size="50.8455">14</text>
									<text transform="matrix(1 0 0 1 842.0732 707.8945)" fill="#78909C" font-family="'OpenSans'" font-size="50.8455">15</text>
									<text transform="matrix(1 0 0 1 99.2607 772.2734)" fill="#78909C" font-family="'OpenSans'" font-size="50.8455">16</text>
									<text transform="matrix(1 0 0 1 226.5303 772.2734)" fill="#78909C" font-family="'OpenSans'" font-size="50.8455">17</text>
									<text transform="matrix(1 0 0 1 349.6553 772.2734)" fill="#78909C" font-family="'OpenSans'" font-size="50.8455">18</text>
									<text transform="matrix(1 0 0 1 472.7959 772.2734)" fill="#78909C" font-family="'OpenSans'" font-size="50.8455">29</text>
									<text transform="matrix(1 0 0 1 595.8154 772.2734)" fill="#78909C" font-family="'OpenSans'" font-size="50.8455">20</text>
									<text transform="matrix(1 0 0 1 718.9561 772.2734)" fill="#78909C" font-family="'OpenSans'" font-size="50.8455">21</text>
									<text transform="matrix(1 0 0 1 842.0732 772.2734)" fill="#78909C" font-family="'OpenSans'" font-size="50.8455">22</text>
									<text transform="matrix(1 0 0 1 842.0732 836.6484)" fill="#78909C" font-family="'OpenSans'" font-size="50.8455">29</text>
									<text transform="matrix(1 0 0 1 99.2607 836.6484)" fill="#78909C" font-family="'OpenSans'" font-size="50.8455">23</text>
									<text transform="matrix(1 0 0 1 226.5303 836.6563)" fill="#78909C" font-family="'OpenSans'" font-size="50.8455">24</text>
									<text transform="matrix(1 0 0 1 349.6553 836.6484)" fill="#78909C" font-family="'OpenSans'" font-size="50.8455">25</text>
									<text transform="matrix(1 0 0 1 472.7959 836.6563)" fill="#78909C" font-family="'OpenSans'" font-size="50.8455">26</text>
									<text transform="matrix(1 0 0 1 595.8154 836.6484)" fill="#78909C" font-family="'OpenSans'" font-size="50.8455">27</text>
									<text transform="matrix(1 0 0 1 718.9561 836.6563)" fill="#78909C" font-family="'OpenSans'" font-size="50.8455">28</text>
									<text transform="matrix(1 0 0 1 99.2607 901.0469)" fill="#78909C" font-family="'OpenSans'" font-size="50.8455">30</text>
									<text transform="matrix(1 0 0 1 226.499 901.0469)" fill="#78909C" font-family="'OpenSans'" font-size="50.8455">31</text>
									<g>
										
											<text transform="matrix(1 0 0 1 92.2363 495.4961)" fill="#ECEFF1" font-family="'OpenSans-Semibold'" font-size="50.8455">Su</text>
										
											<text transform="matrix(1 0 0 1 212.0371 495.4961)" fill="#ECEFF1" font-family="'OpenSans-Semibold'" font-size="50.8455">Mo</text>
										
											<text transform="matrix(1 0 0 1 343.3262 495.4961)" fill="#ECEFF1" font-family="'OpenSans-Semibold'" font-size="50.8455">Tu</text>
										
											<text transform="matrix(1 0 0 1 459.2363 495.4961)" fill="#ECEFF1" font-family="'OpenSans-Semibold'" font-size="50.8455">We</text>
										
											<text transform="matrix(1 0 0 1 590.2793 495.4961)" fill="#ECEFF1" font-family="'OpenSans-Semibold'" font-size="50.8455">Th</text>
										
											<text transform="matrix(1 0 0 1 719.6846 495.4961)" fill="#ECEFF1" font-family="'OpenSans-Semibold'" font-size="50.8455">Fr</text>
										
											<text transform="matrix(1 0 0 1 839.2949 495.4961)" fill="#ECEFF1" font-family="'OpenSans-Semibold'" font-size="50.8455">Sa</text>
									</g>
									<text transform="matrix(1 0 0 1 111.853 640.7617)" fill="#78909C" font-family="'OpenSans'" font-size="50.8455">2</text>
								</g>
							</g>
						</g>
					</g>
				</g>
			</g>
		</g>
		<g>
			<text transform="matrix(1 0 0 1 649.3809 139.0508)" fill="#E64A19" font-family="'OpenSans-Bold'" font-size="66.8692">OCTOBER</text>
		</g>
		<g>
			<text transform="matrix(1 0 0 1 575.6309 334.1406)" fill="#E64A19" font-family="'Bebas'" font-size="167.1731">2017</text>
		</g>
		<text transform="matrix(1 0 0 1 67.2305 335.0977)" fill="#FFFFFF" font-family="'Arcon-Regular'" font-size="345.4911">10</text>
	</g>
</g>
</svg>
