<?xml version="1.0" encoding="utf-8"?>
<!-- Generator: Adobe Illustrator 16.0.0, SVG Export Plug-In . SVG Version: 6.00 Build 0)  -->
<!DOCTYPE svg PUBLIC "-//W3C//DTD SVG 1.1//EN" "http://www.w3.org/Graphics/SVG/1.1/DTD/svg11.dtd">
<svg version="1.1" id="Layer_1" xmlns="http://www.w3.org/2000/svg" xmlns:xlink="http://www.w3.org/1999/xlink" x="0px" y="0px"
	 width="1000px" height="1000px" viewBox="0 0 1000 1000" enable-background="new 0 0 1000 1000" xml:space="preserve">
<g>
	<g>
		<g>
			<rect x="10" fill="#ECEFF1" width="966.536" height="1000"/>
			<rect x="10" fill="#26A69A" width="966.536" height="394.053"/>
		</g>
		
			<line fill="none" stroke="#00796B" stroke-width="2" stroke-miterlimit="10" x1="509.997" y1="83.838" x2="509.997" y2="335.616"/>
	</g>
	<g>
		<g>
			<g>
				<g>
					<rect x="67.268" y="446.766" fill="#FFFFFF" width="108.223" height="70.789"/>
					<rect x="191.233" y="446.766" fill="#CFD8DC" width="108.221" height="70.789"/>
					<rect x="315.196" y="446.766" fill="#CFD8DC" width="108.223" height="70.789"/>
					<rect x="439.159" y="446.766" fill="#CFD8DC" width="108.224" height="70.789"/>
					<rect x="563.122" y="446.766" fill="#CFD8DC" width="108.223" height="70.789"/>
					<rect x="687.085" y="446.766" fill="#CFD8DC" width="108.223" height="70.789"/>
					<rect x="811.047" y="446.766" fill="#FFFFFF" width="108.225" height="70.789"/>
				</g>
				<g>
					<g>
						<g>
							<g>
								<g>
									<g>
										<g>
											<text transform="matrix(1 0 0 1 732.0391 579.9863)" fill="#78909C" font-family="'OpenSans'" font-size="50.8797">2</text>
											<text transform="matrix(1 0 0 1 855.6875 579.9941)" fill="#78909C" font-family="'OpenSans'" font-size="50.8797">3</text>
										</g>
										<text transform="matrix(1 0 0 1 239.6909 644.418)" fill="#78909C" font-family="'OpenSans'" font-size="50.8797">5</text>
										<text transform="matrix(1 0 0 1 362.877 644.418)" fill="#78909C" font-family="'OpenSans'" font-size="50.8797">6</text>
										<text transform="matrix(1 0 0 1 486.082 644.418)" fill="#78909C" font-family="'OpenSans'" font-size="50.8797">7</text>
										<text transform="matrix(1 0 0 1 609.2852 644.418)" fill="#78909C" font-family="'OpenSans'" font-size="50.8797">8</text>
										<text transform="matrix(1 0 0 1 609.2852 579.9824)" fill="#78909C" font-family="'OpenSans'" font-size="50.8797">1</text>
										<text transform="matrix(1 0 0 1 732.4902 644.418)" fill="#78909C" font-family="'OpenSans'" font-size="50.8797">9</text>
										<text transform="matrix(1 0 0 1 842.6367 644.418)" fill="#78909C" font-family="'OpenSans'" font-size="50.8797">10</text>
										<text transform="matrix(1 0 0 1 99.3228 708.8418)" fill="#78909C" font-family="'OpenSans'" font-size="50.8797">11</text>
										<text transform="matrix(1 0 0 1 226.668 708.8418)" fill="#78909C" font-family="'OpenSans'" font-size="50.8797">12</text>
										<text transform="matrix(1 0 0 1 349.8848 708.8418)" fill="#78909C" font-family="'OpenSans'" font-size="50.8797">13</text>
										<text transform="matrix(1 0 0 1 473.106 708.8418)" fill="#78909C" font-family="'OpenSans'" font-size="50.8797">14</text>
										<text transform="matrix(1 0 0 1 596.2031 708.8418)" fill="#78909C" font-family="'OpenSans'" font-size="50.8797">15</text>
										<text transform="matrix(1 0 0 1 719.4121 708.8418)" fill="#78909C" font-family="'OpenSans'" font-size="50.8797">16</text>
										<text transform="matrix(1 0 0 1 842.6367 708.8418)" fill="#78909C" font-family="'OpenSans'" font-size="50.8797">17</text>
										<text transform="matrix(1 0 0 1 99.3228 773.2686)" fill="#78909C" font-family="'OpenSans'" font-size="50.8797">18</text>
										<text transform="matrix(1 0 0 1 226.668 773.2686)" fill="#78909C" font-family="'OpenSans'" font-size="50.8797">19</text>
										<text transform="matrix(1 0 0 1 349.8848 773.2686)" fill="#78909C" font-family="'OpenSans'" font-size="50.8797">20</text>
										<text transform="matrix(1 0 0 1 473.106 773.2686)" fill="#78909C" font-family="'OpenSans'" font-size="50.8797">21</text>
										<text transform="matrix(1 0 0 1 596.2031 773.2686)" fill="#78909C" font-family="'OpenSans'" font-size="50.8797">22</text>
										<text transform="matrix(1 0 0 1 719.4199 773.2686)" fill="#78909C" font-family="'OpenSans'" font-size="50.8797">23</text>
										<text transform="matrix(1 0 0 1 842.6367 773.2686)" fill="#78909C" font-family="'OpenSans'" font-size="50.8797">24</text>
										<text transform="matrix(1 0 0 1 99.3228 837.6885)" fill="#78909C" font-family="'OpenSans'" font-size="50.8797">25</text>
										<text transform="matrix(1 0 0 1 226.668 837.7002)" fill="#78909C" font-family="'OpenSans'" font-size="50.8797">26</text>
										<text transform="matrix(1 0 0 1 349.8848 837.6885)" fill="#78909C" font-family="'OpenSans'" font-size="50.8797">27</text>
										<text transform="matrix(1 0 0 1 473.106 837.7002)" fill="#78909C" font-family="'OpenSans'" font-size="50.8797">28</text>
										<text transform="matrix(1 0 0 1 596.2031 837.6885)" fill="#78909C" font-family="'OpenSans'" font-size="50.8797">29</text>
										<text transform="matrix(1 0 0 1 719.4199 837.7002)" fill="#78909C" font-family="'OpenSans'" font-size="50.8797">30</text>
										<g>
											
												<text transform="matrix(1 0 0 1 92.2891 496.3032)" fill="#ECEFF1" font-family="'OpenSans-Semibold'" font-size="50.8797">Su</text>
											
												<text transform="matrix(1 0 0 1 212.1743 496.3032)" fill="#ECEFF1" font-family="'OpenSans-Semibold'" font-size="50.8797">Mo</text>
											
												<text transform="matrix(1 0 0 1 343.5317 496.3032)" fill="#ECEFF1" font-family="'OpenSans-Semibold'" font-size="50.8797">Tu</text>
											
												<text transform="matrix(1 0 0 1 459.5469 496.3032)" fill="#ECEFF1" font-family="'OpenSans-Semibold'" font-size="50.8797">We</text>
											
												<text transform="matrix(1 0 0 1 590.6768 496.3032)" fill="#ECEFF1" font-family="'OpenSans-Semibold'" font-size="50.8797">Th</text>
											
												<text transform="matrix(1 0 0 1 720.1436 496.3032)" fill="#ECEFF1" font-family="'OpenSans-Semibold'" font-size="50.8797">Fr</text>
											
												<text transform="matrix(1 0 0 1 839.8486 496.3032)" fill="#ECEFF1" font-family="'OpenSans-Semibold'" font-size="50.8797">Sa</text>
										</g>
										<text transform="matrix(1 0 0 1 111.9141 641.6709)" fill="#78909C" font-family="'OpenSans'" font-size="50.8797">4</text>
									</g>
								</g>
							</g>
						</g>
					</g>
				</g>
			</g>
		</g>
		<g>
			<text transform="matrix(1 0 0 1 592.5996 139.6162)" fill="#00796B" font-family="'OpenSans-Bold'" font-size="66.9143">SEPTEMBER</text>
		</g>
		<g>
			<text transform="matrix(1 0 0 1 576.0098 334.8398)" fill="#00796B" font-family="'Bebas'" font-size="167.2858">2017</text>
		</g>
		<text transform="matrix(1 0 0 1 67.291 335.3145)" fill="#FFFFFF" font-family="'Arcon-Regular'" font-size="345.7239">09</text>
	</g>
</g>
</svg>
