<?xml version="1.0" standalone="no"?>
<!DOCTYPE svg PUBLIC "-//W3C//DTD SVG 20010904//EN"
 "http://www.w3.org/TR/2001/REC-SVG-20010904/DTD/svg10.dtd">
<svg version="1.0" xmlns="http://www.w3.org/2000/svg"
 width="512.000000pt" height="512.000000pt" viewBox="0 0 512.000000 512.000000"
 preserveAspectRatio="xMidYMid meet">
<metadata>
Created by potrace 1.11, written by Peter Selinger 2001-2013
</metadata>
<g transform="translate(0.000000,512.000000) scale(0.100000,-0.100000)"
fill="#000000" stroke="none">
<path d="M2505 4470 c-10 -11 -22 -17 -26 -14 -5 3 -6 -3 -2 -13 3 -10 3 -15
-1 -12 -8 8 -85 -63 -79 -73 2 -4 -6 -9 -17 -13 -11 -4 -17 -11 -14 -17 5 -7
1 -9 -9 -5 -11 4 -14 2 -10 -9 3 -9 -1 -14 -13 -14 -9 0 -15 -3 -11 -6 7 -8
-22 -39 -37 -39 -6 0 -12 -6 -12 -12 -1 -7 -2 -18 -3 -24 0 -6 -8 -9 -16 -5
-8 3 -14 0 -12 -7 1 -7 -4 -11 -12 -9 -12 3 -12 1 -1 -15 8 -10 11 -15 6 -11
-10 8 -36 -15 -36 -32 0 -6 -4 -8 -10 -5 -5 3 -10 0 -10 -7 0 -8 -9 -20 -20
-28 -11 -8 -20 -19 -20 -25 0 -15 -65 -77 -72 -69 -4 3 -4 -4 -1 -17 5 -18 3
-21 -10 -16 -10 4 -16 2 -14 -6 1 -7 -4 -11 -11 -9 -8 1 -11 -2 -7 -8 10 -17
-76 -124 -87 -108 -5 9 -7 5 -6 -12 2 -16 -2 -24 -9 -23 -7 2 -13 -5 -13 -15
0 -9 -11 -29 -25 -44 -14 -15 -26 -31 -26 -35 -1 -5 -5 -7 -10 -6 -5 2 -9 -2
-9 -7 0 -6 -6 -5 -14 2 -8 7 -12 16 -10 19 2 4 -4 6 -14 5 -9 0 -16 4 -15 11
2 7 -4 10 -12 6 -9 -3 -23 1 -33 8 -9 8 -48 30 -87 49 -38 19 -73 39 -76 43
-3 5 -8 8 -10 7 -7 -3 -91 32 -119 49 -8 5 -30 15 -47 21 -18 7 -31 16 -28 20
3 4 -1 8 -8 7 -34 -1 -48 4 -41 15 4 6 3 8 -3 5 -6 -4 -27 0 -47 8 -20 8 -36
13 -36 9 0 -3 -7 2 -16 10 -8 9 -21 16 -29 16 -7 0 -25 7 -41 14 -15 8 -31 13
-36 10 -4 -3 -8 -1 -8 4 0 5 -20 15 -45 22 -25 7 -45 17 -45 23 0 6 -3 8 -6 4
-3 -3 -18 -1 -33 5 -14 5 -33 11 -41 13 -8 2 -21 5 -29 7 -9 2 -17 -9 -23 -30
-5 -18 -12 -30 -17 -28 -5 3 -8 -2 -8 -12 0 -35 -3 -43 -14 -36 -8 4 -9 0 -4
-15 4 -12 2 -21 -4 -21 -6 0 -8 -7 -5 -15 4 -8 1 -22 -5 -29 -7 -8 -14 -27
-17 -43 -3 -15 -12 -33 -20 -39 -10 -8 -11 -13 -4 -16 6 -2 8 -11 4 -22 -5
-14 -9 -15 -15 -4 -5 8 -7 0 -4 -20 2 -23 -1 -35 -11 -39 -12 -4 -13 -8 -4
-13 10 -6 9 -13 -3 -30 -8 -12 -13 -28 -11 -35 3 -7 1 -16 -5 -19 -6 -4 -8
-13 -5 -20 3 -8 -5 -24 -18 -36 -15 -14 -17 -19 -6 -15 13 5 15 2 11 -14 -3
-11 -8 -19 -12 -17 -3 2 -6 -6 -7 -17 0 -12 -4 -35 -8 -52 -4 -16 -8 -39 -9
-50 -1 -11 -11 -28 -22 -38 -11 -10 -15 -16 -8 -13 6 4 14 2 18 -4 3 -5 2 -10
-4 -10 -6 0 -7 -7 -4 -17 5 -12 3 -14 -7 -8 -9 6 -11 4 -5 -5 5 -8 1 -19 -11
-28 -17 -13 -17 -14 -1 -9 15 6 16 2 10 -21 -3 -14 -6 -32 -6 -39 0 -7 -4 -10
-9 -7 -4 3 -5 -8 -2 -25 5 -23 2 -30 -12 -34 -18 -4 -18 -5 0 -6 20 -1 20 -1
0 -16 -12 -9 -14 -14 -6 -15 7 0 10 -5 6 -12 -4 -6 -9 -36 -11 -66 -2 -31 -8
-59 -14 -63 -8 -4 -7 -8 2 -12 9 -4 10 -6 2 -6 -7 -1 -10 -8 -6 -18 4 -10 2
-14 -5 -9 -6 3 -14 2 -17 -4 -4 -6 -1 -9 6 -8 13 3 22 -39 10 -46 -4 -3 -6
-23 -5 -45 1 -37 -1 -41 -20 -36 -19 5 -19 4 1 -6 23 -12 31 -29 15 -29 -5 0
-9 -7 -9 -15 0 -8 4 -15 8 -15 5 0 5 -10 1 -22 -4 -13 -7 -46 -7 -75 1 -29 -2
-50 -6 -47 -4 2 -4 -9 1 -25 10 -35 2 -74 -13 -64 -6 3 -7 1 -3 -6 4 -6 12 -9
17 -6 5 4 9 -3 9 -15 0 -12 -4 -19 -9 -15 -5 3 -13 1 -16 -5 -4 -6 -1 -9 6 -8
16 4 19 -44 4 -54 -6 -5 -4 -8 6 -8 10 0 15 -8 14 -22 -1 -16 -8 -22 -21 -21
-17 2 -17 2 2 -8 16 -8 21 -22 23 -67 4 -87 5 -92 11 -92 9 0 8 -55 -1 -67 -7
-8 -5 -14 4 -20 18 -10 25 -43 13 -62 -6 -10 -5 -12 2 -7 7 4 12 4 13 -1 0 -4
2 -15 4 -23 11 -38 9 -55 -3 -52 -8 1 -11 -2 -7 -8 3 -6 11 -8 16 -5 5 4 9 -3
9 -14 0 -10 -3 -21 -7 -24 -5 -2 -3 -3 4 -1 18 4 24 -8 10 -24 -8 -10 -8 -13
-1 -9 7 4 15 0 18 -9 5 -12 2 -15 -9 -10 -9 3 -13 2 -10 -4 3 -6 14 -10 23
-11 10 0 12 -3 5 -6 -10 -3 -10 -8 1 -19 8 -7 13 -22 12 -31 -2 -10 4 -24 13
-31 9 -8 10 -11 4 -7 -9 4 -11 1 -7 -9 3 -9 11 -13 18 -9 6 4 4 -2 -4 -12 -9
-11 -10 -16 -2 -11 7 4 12 1 12 -8 0 -9 4 -16 9 -16 6 0 8 -9 6 -20 -2 -11 0
-20 5 -20 5 0 12 -11 16 -25 3 -14 11 -25 16 -25 7 0 6 -5 -1 -14 -9 -10 -8
-15 3 -19 8 -3 20 -16 27 -29 12 -22 11 -23 -8 -6 -22 20 -33 23 -33 8 0 -6 3
-9 8 -8 4 2 18 -5 32 -15 16 -11 19 -17 10 -18 -9 0 -7 -3 5 -8 11 -5 20 -12
20 -17 0 -5 4 -15 8 -21 5 -7 6 -13 3 -13 -3 0 6 -11 19 -24 16 -16 22 -31 18
-42 -4 -12 -3 -15 5 -10 7 4 12 1 12 -9 0 -9 4 -14 9 -11 5 3 14 -8 21 -25 11
-26 11 -32 -1 -40 -8 -5 -9 -9 -4 -9 6 0 16 5 23 12 9 9 12 7 12 -10 0 -12 6
-22 14 -22 9 0 12 -7 9 -20 -3 -12 0 -20 6 -20 7 0 9 5 6 10 -3 6 -1 10 5 10
7 0 10 -6 7 -13 -3 -8 4 -20 15 -28 35 -25 58 -46 58 -54 0 -5 -9 0 -20 10
-16 15 -23 16 -33 6 -9 -10 -8 -11 7 -5 14 5 17 4 12 -5 -5 -7 -2 -10 6 -9 7
2 12 -3 10 -11 -3 -12 0 -12 13 -1 8 7 19 9 23 5 4 -4 1 -10 -5 -12 -7 -3 -13
-10 -13 -16 0 -8 4 -7 12 1 16 16 25 15 31 -2 4 -10 1 -13 -9 -9 -7 3 -14 -1
-14 -8 0 -7 3 -9 7 -6 3 4 13 1 21 -6 13 -9 14 -9 8 1 -4 7 -1 12 8 12 19 0
21 -26 4 -34 -7 -3 0 -3 15 1 23 4 29 2 34 -16 3 -11 10 -21 15 -21 5 0 6 6 2
13 -7 12 45 -31 58 -48 4 -5 4 -14 0 -20 -3 -5 1 -4 10 3 14 11 19 9 32 -10 9
-12 16 -19 16 -14 0 5 6 3 13 -3 8 -6 16 -8 20 -5 3 3 12 -3 19 -15 7 -12 18
-21 25 -21 12 0 18 -20 14 -43 -1 -5 3 -6 8 -3 5 4 11 1 13 -6 3 -8 7 -6 11 5
4 10 2 16 -5 14 -6 -1 -13 5 -15 13 -4 12 -3 12 5 2 5 -8 12 -12 15 -10 4 1
16 -5 27 -15 12 -10 24 -15 29 -13 4 3 19 -6 33 -19 18 -17 28 -21 31 -12 3 7
6 4 6 -6 1 -14 7 -17 31 -13 29 4 46 -5 33 -18 -3 -3 -12 -1 -19 5 -8 7 -14 7
-19 -1 -4 -6 -1 -9 7 -8 8 2 12 -5 10 -17 -2 -13 0 -16 5 -8 5 6 20 16 35 22
25 10 26 9 23 -22 -3 -29 -3 -30 7 -10 12 25 23 29 33 13 4 -6 11 -8 16 -5 5
4 6 -2 2 -12 -6 -15 -4 -16 9 -5 12 10 22 10 44 1 16 -7 35 -11 42 -10 6 1 12
-4 12 -11 0 -9 3 -9 11 -1 9 9 15 8 26 -3 8 -8 19 -12 24 -9 5 4 9 2 9 -3 0
-6 -11 -9 -24 -8 -13 0 -22 4 -19 9 2 4 -1 7 -7 7 -7 0 -10 -6 -7 -12 2 -7 12
-11 22 -10 17 3 17 2 4 -14 -13 -17 -13 -17 12 -1 14 10 29 14 33 10 3 -4 17
-8 29 -10 17 -2 19 -1 7 6 -8 5 -17 8 -21 5 -4 -2 -10 0 -13 5 -4 5 -2 12 3
15 5 4 12 2 16 -4 3 -5 15 -10 26 -10 20 0 26 -15 9 -25 -13 -8 -13 -25 1 -25
5 0 7 5 4 10 -3 6 1 13 9 16 9 3 14 9 12 13 -3 4 4 7 14 7 10 0 16 -4 13 -9
-3 -4 13 -6 36 -4 22 2 38 0 35 -5 -3 -4 2 -11 10 -14 9 -3 14 -9 11 -13 -2
-4 6 -7 18 -6 15 1 21 8 20 21 -1 10 0 13 3 7 3 -7 10 -13 15 -13 6 0 7 6 3
13 -5 8 -2 8 9 -2 18 -14 24 -26 8 -17 -5 3 -14 -1 -20 -8 -9 -10 -9 -16 -1
-21 6 -4 9 -3 8 2 -2 4 0 8 3 8 3 0 14 6 23 14 13 11 14 16 4 24 -9 6 -6 6 7
1 11 -4 55 -7 97 -8 43 -1 78 -2 78 -3 0 -1 -10 -7 -21 -14 -17 -9 -24 -8 -31
2 -8 11 -9 11 -5 -1 5 -19 48 -15 63 5 10 14 12 14 18 0 3 -8 2 -15 -3 -15 -4
0 -8 -7 -8 -16 0 -14 2 -14 14 2 8 11 18 19 23 19 4 0 12 4 17 9 5 5 3 6 -4 2
-7 -4 -13 -2 -13 4 0 7 8 9 19 5 11 -3 22 -1 26 5 4 6 13 7 23 2 9 -5 55 -8
100 -7 77 2 84 0 92 -19 7 -16 9 -17 9 -4 1 9 6 20 13 24 7 4 8 3 4 -4 -5 -9
0 -9 18 -2 14 5 26 7 26 4 0 -4 6 -1 14 5 10 8 16 9 21 1 3 -6 11 -8 16 -5 5
4 16 -1 25 -9 18 -18 34 -21 34 -6 0 5 -3 9 -8 7 -4 -1 -9 2 -12 7 -3 5 5 10
18 11 15 1 21 -3 18 -11 -3 -7 0 -16 6 -20 6 -4 8 -3 5 3 -8 13 18 37 31 29 5
-3 20 1 35 9 15 8 27 10 27 4 0 -11 26 -12 33 -1 2 4 2 2 1 -5 -2 -7 3 -10 11
-6 8 3 12 9 9 14 -3 5 -2 9 3 8 4 -1 10 0 13 1 3 1 19 3 35 6 29 3 64 10 75
14 3 1 15 1 26 1 12 -1 24 5 28 14 3 10 11 13 18 8 22 -13 66 -10 61 4 -4 10
-9 11 -18 3 -10 -8 -15 -7 -21 2 -4 7 -4 10 1 6 4 -4 14 -3 21 3 8 7 14 7 19
-1 3 -5 11 -10 16 -10 6 0 7 5 3 11 -4 7 1 7 16 -1 20 -11 21 -10 11 9 -10 17
-9 20 4 15 9 -4 25 2 37 12 12 11 18 13 14 7 -4 -7 -3 -13 3 -13 5 0 14 7 18
15 5 8 18 16 30 18 11 1 28 9 37 16 9 7 16 10 16 7 0 -4 12 2 28 12 15 11 36
22 46 24 10 1 31 14 46 28 29 27 71 37 66 17 -1 -7 -1 -9 1 -4 3 4 9 5 13 2 5
-3 12 0 16 6 4 8 3 9 -4 5 -7 -4 -12 -2 -12 3 0 6 0 13 0 16 0 3 3 5 6 4 4 0
10 5 15 12 4 8 18 14 30 14 12 0 24 7 27 15 5 13 3 13 -14 0 -17 -14 -18 -14
-6 2 8 10 20 14 29 11 11 -5 14 -3 8 6 -6 11 -3 11 16 0 20 -10 22 -10 13 2
-15 18 7 44 24 27 6 -6 17 0 31 20 11 17 21 35 21 40 0 5 7 13 16 16 14 5 15
4 5 -8 -11 -13 -9 -13 13 -3 15 7 20 14 13 19 -14 9 9 37 40 49 13 5 23 16 23
24 0 9 5 13 10 10 6 -4 7 -11 4 -17 -4 -7 -2 -8 5 -4 6 4 11 13 10 19 -3 23 1
37 11 37 5 0 7 -8 4 -18 -5 -13 -4 -14 4 -3 6 8 8 20 5 28 -3 7 2 16 11 19 9
3 16 12 16 18 0 7 13 30 30 53 16 22 26 44 22 48 -4 5 -1 5 6 1 7 -4 12 -1 12
8 0 8 11 27 25 41 15 14 20 25 13 25 -8 0 -7 4 4 10 9 6 19 24 23 40 6 29 14
34 45 30 10 -1 9 3 -5 14 -12 9 -15 15 -7 16 7 0 10 5 7 10 -3 6 -1 10 5 10 6
0 8 5 5 10 -3 6 -1 10 5 10 6 0 10 6 9 13 -3 16 22 67 32 67 5 0 6 6 3 14 -3
8 0 17 5 21 6 3 9 11 6 16 -4 5 2 9 12 9 14 0 15 2 5 9 -12 7 -12 12 0 32 7
13 18 27 23 31 6 5 4 8 -4 8 -11 0 -10 4 4 14 17 12 32 52 16 41 -4 -2 -8 3
-8 11 0 8 6 13 14 10 10 -4 11 -1 3 14 -7 13 -7 21 0 25 6 4 8 10 5 15 -3 5 0
12 6 15 5 4 8 14 5 22 -4 10 -2 13 8 10 14 -6 17 16 4 29 -4 3 3 16 16 28 12
11 14 15 4 7 -17 -14 -18 -12 -12 25 3 21 9 44 12 49 4 6 5 18 3 29 -1 10 1
16 6 13 5 -3 7 8 5 25 -4 24 -2 29 9 23 12 -8 12 -6 1 8 -12 14 -11 16 8 12
13 -2 19 -1 16 3 -4 4 -13 7 -19 7 -7 0 -12 7 -12 15 0 8 6 14 13 12 9 -2 11
2 5 10 -12 20 -12 68 1 68 6 0 4 5 -4 10 -8 5 -10 10 -3 10 7 0 10 15 7 42 -2
24 1 48 9 56 9 13 9 14 0 8 -7 -4 -13 -2 -13 3 0 6 6 11 13 11 7 0 8 3 2 8 -5
4 -11 18 -13 31 -2 21 0 22 15 10 17 -13 17 -13 3 5 -17 21 -20 65 -7 84 6 7
5 17 -2 25 -8 10 -7 17 1 25 9 9 9 12 0 12 -7 0 -12 7 -12 16 0 9 5 12 13 8 8
-5 8 -2 -2 9 -7 9 -11 17 -7 17 3 0 1 11 -4 24 -6 17 -5 26 3 30 9 3 9 5 0 5
-7 1 -13 6 -13 12 0 5 6 7 13 3 9 -6 9 -5 0 7 -6 8 -11 28 -11 45 1 17 -3 37
-7 44 -6 9 -4 11 5 5 10 -6 11 -4 4 6 -11 18 -15 42 -17 101 -1 27 -6 48 -12
48 -5 0 -3 5 5 10 9 6 10 10 3 10 -18 0 -21 34 -3 48 13 10 12 11 -5 5 -18 -6
-19 -5 -5 12 8 10 10 16 4 12 -7 -4 -14 0 -18 8 -3 8 -1 15 4 15 6 0 10 5 10
11 0 5 -4 7 -10 4 -8 -5 -16 47 -11 78 0 4 -4 7 -11 7 -9 0 -9 3 0 12 9 9 8
16 -5 30 -9 10 -11 18 -6 18 6 0 14 7 17 16 5 14 4 15 -8 5 -9 -7 -17 -8 -20
-2 -3 5 0 12 6 14 10 4 9 6 -1 6 -11 1 -10 6 5 23 15 19 16 20 2 9 -16 -12
-18 -11 -19 5 -1 11 -1 25 0 32 1 6 -3 12 -9 12 -6 0 -10 8 -7 18 2 9 -3 29
-10 45 -11 21 -11 27 -1 27 11 0 10 2 0 8 -7 5 -15 21 -18 37 -3 15 -10 37
-16 48 -7 14 -7 22 2 27 8 5 7 9 -4 13 -10 4 -16 18 -16 37 0 16 -5 30 -11 30
-8 0 -8 4 0 14 9 11 8 15 -5 20 -13 5 -14 9 -3 22 10 12 10 15 -1 12 -7 -2
-16 9 -21 25 -4 15 -3 25 1 22 5 -3 12 -1 15 5 4 6 3 10 -2 9 -4 -1 -14 -1
-22 0 -11 1 -11 4 0 18 12 14 12 16 0 8 -11 -6 -13 -4 -8 9 4 10 3 15 -3 11
-12 -7 -24 39 -16 60 3 8 0 14 -6 12 -7 -1 -13 9 -14 22 -1 13 -8 27 -15 32
-12 7 -11 9 1 9 11 0 12 3 3 8 -6 4 -17 20 -23 36 -10 28 -11 28 -36 11 -18
-11 -24 -12 -18 -4 6 10 1 9 -16 -2 -14 -9 -35 -15 -47 -14 -12 1 -21 -3 -20
-8 2 -10 -22 -18 -60 -21 -11 0 -19 -4 -16 -8 4 -7 -12 -12 -29 -9 -5 0 -8 -3
-8 -8 0 -10 -45 -25 -72 -24 -10 0 -16 -3 -13 -7 6 -10 -63 -32 -76 -24 -7 4
-9 3 -6 -3 6 -9 -11 -23 -33 -27 -24 -6 -120 -51 -120 -58 0 -4 -5 -8 -11 -8
-5 0 -7 6 -3 13 4 6 -4 2 -18 -10 -13 -13 -30 -23 -37 -23 -14 0 -95 -42 -99
-52 -2 -4 -10 -4 -18 -1 -8 3 -14 0 -14 -6 0 -6 -7 -11 -15 -11 -7 0 -19 -8
-24 -17 -6 -10 -11 -14 -11 -9 0 5 -7 3 -15 -4 -8 -7 -15 -9 -15 -4 0 5 -4 4
-8 -3 -4 -6 -14 -13 -22 -15 -8 -2 -23 -11 -34 -20 -10 -10 -23 -15 -28 -12
-4 3 -8 0 -8 -7 0 -6 -8 -9 -20 -6 -12 3 -18 1 -14 -5 4 -6 1 -9 -5 -7 -7 3
-12 8 -12 12 1 4 -10 19 -24 33 -14 14 -25 29 -25 34 0 5 -9 18 -21 29 -13 12
-18 24 -13 32 5 9 2 10 -11 5 -15 -5 -16 -4 -5 9 7 9 9 15 4 14 -27 -5 -36 1
-24 16 11 13 10 14 -1 10 -8 -3 -22 7 -34 25 -11 16 -23 30 -27 30 -5 0 -8 5
-8 11 0 6 -14 24 -30 41 -17 16 -28 34 -24 39 3 5 -2 9 -10 9 -8 0 -18 9 -21
20 -3 11 -12 20 -19 20 -7 0 -18 11 -24 25 -6 14 -16 25 -22 25 -5 0 -10 7
-10 15 0 8 -7 15 -17 15 -9 0 -13 3 -10 6 3 4 -8 20 -24 35 -21 19 -29 35 -25
45 5 13 4 14 -7 6 -10 -9 -17 -6 -28 10 -8 11 -22 29 -33 39 -10 10 -15 23
-11 30 5 8 4 10 -4 5 -15 -9 -44 20 -35 35 4 8 3 9 -5 5 -7 -4 -36 19 -74 58
-35 36 -66 66 -69 66 -3 0 -13 -9 -23 -20z m1935 -2644 c0 -3 -4 -8 -10 -11
-5 -3 -10 -1 -10 4 0 6 5 11 10 11 6 0 10 -2 10 -4z m-516 -801 c-9 -14 -19
-23 -22 -20 -5 4 26 45 35 45 2 0 -4 -11 -13 -25z m-1750 -412 c4 -11 1 -11
-14 -3 -24 13 -25 17 -5 17 8 0 16 -6 19 -14z"/>
<path d="M1967 3899 c7 -7 15 -10 18 -7 3 3 -2 9 -12 12 -14 6 -15 5 -6 -5z"/>
<path d="M4515 3020 c3 -5 8 -10 11 -10 2 0 4 5 4 10 0 6 -5 10 -11 10 -5 0
-7 -4 -4 -10z"/>
<path d="M4546 2582 c-3 -5 1 -9 9 -9 8 0 12 4 9 9 -3 4 -7 8 -9 8 -2 0 -6 -4
-9 -8z"/>
<path d="M613 1991 c0 -11 5 -18 9 -15 4 3 5 11 1 19 -7 21 -12 19 -10 -4z"/>
<path d="M4456 1902 c-3 -5 1 -9 9 -9 8 0 12 4 9 9 -3 4 -7 8 -9 8 -2 0 -6 -4
-9 -8z"/>
<path d="M4420 1759 c0 -5 5 -7 10 -4 6 3 10 8 10 11 0 2 -4 4 -10 4 -5 0 -10
-5 -10 -11z"/>
<path d="M671 1733 c7 -12 15 -20 18 -17 3 2 -3 12 -13 22 -17 16 -18 16 -5
-5z"/>
<path d="M4395 1679 c-4 -6 -5 -12 -2 -15 2 -3 7 2 10 11 7 17 1 20 -8 4z"/>
<path d="M740 1611 c0 -6 4 -13 10 -16 6 -3 7 1 4 9 -7 18 -14 21 -14 7z"/>
<path d="M4349 1603 c-13 -16 -12 -17 4 -4 16 13 21 21 13 21 -2 0 -10 -8 -17
-17z"/>
<path d="M749 1563 c-13 -16 -12 -17 4 -4 9 7 17 15 17 17 0 8 -8 3 -21 -13z"/>
<path d="M4335 1540 c-3 -5 -1 -10 4 -10 6 0 11 5 11 10 0 6 -2 10 -4 10 -3 0
-8 -4 -11 -10z"/>
<path d="M4286 1473 c-6 -14 -5 -15 5 -6 7 7 10 15 7 18 -3 3 -9 -2 -12 -12z"/>
<path d="M790 1446 c0 -2 7 -7 16 -10 8 -3 12 -2 9 4 -6 10 -25 14 -25 6z"/>
<path d="M4276 1433 c-4 -9 -3 -20 1 -24 4 -4 9 3 9 17 2 28 -1 31 -10 7z"/>
<path d="M860 1380 c-9 -6 -10 -10 -3 -10 6 0 15 5 18 10 8 12 4 12 -15 0z"/>
<path d="M4225 1369 c-4 -6 -4 -13 -1 -16 3 -4 6 -1 6 6 0 7 5 9 12 5 7 -4 8
-3 4 4 -9 15 -13 15 -21 1z"/>
<path d="M993 1165 c0 -8 4 -12 9 -9 5 3 6 10 3 15 -9 13 -12 11 -12 -6z"/>
<path d="M4010 1105 c-11 -13 -10 -14 4 -9 9 3 16 10 16 15 0 13 -6 11 -20 -6z"/>
<path d="M3976 1042 c-3 -5 1 -9 9 -9 8 0 12 4 9 9 -3 4 -7 8 -9 8 -2 0 -6 -4
-9 -8z"/>
<path d="M1190 980 c0 -5 5 -10 11 -10 5 0 7 5 4 10 -3 6 -8 10 -11 10 -2 0
-4 -4 -4 -10z"/>
<path d="M1224 979 c-4 -7 -3 -10 3 -6 12 8 36 -17 26 -26 -3 -4 -1 -7 5 -7
18 0 14 15 -7 34 -14 13 -21 14 -27 5z"/>
<path d="M3887 979 c7 -7 15 -10 18 -7 3 3 -2 9 -12 12 -14 6 -15 5 -6 -5z"/>
<path d="M3776 915 c-3 -8 0 -17 6 -21 6 -4 8 -3 4 4 -3 5 -1 12 6 14 8 3 9 6
1 11 -6 4 -13 0 -17 -8z"/>
<path d="M1310 900 c0 -5 5 -10 11 -10 5 0 7 5 4 10 -3 6 -8 10 -11 10 -2 0
-4 -4 -4 -10z"/>
<path d="M1342 905 c4 -4 3 -14 -3 -22 -7 -8 -8 -13 -1 -13 15 0 23 28 9 36
-7 4 -9 4 -5 -1z"/>
<path d="M1370 886 c0 -8 7 -16 15 -20 13 -4 14 -2 5 14 -13 23 -20 26 -20 6z"/>
<path d="M3692 863 c-6 -10 -14 -17 -19 -15 -4 2 -9 -1 -11 -6 -1 -5 5 -13 15
-16 9 -4 14 -4 10 0 -4 4 0 16 10 26 9 10 14 21 11 24 -4 3 -11 -3 -16 -13z"/>
<path d="M1386 842 c-3 -5 1 -9 9 -9 8 0 12 4 9 9 -3 4 -7 8 -9 8 -2 0 -6 -4
-9 -8z"/>
<path d="M3710 846 c0 -2 7 -7 16 -10 8 -3 12 -2 9 4 -6 10 -25 14 -25 6z"/>
<path d="M1473 807 c0 -12 1 -16 4 -8 5 11 7 11 14 0 5 -8 9 -9 9 -3 0 6 -6
16 -13 22 -10 8 -13 6 -14 -11z"/>
<path d="M3625 820 c-4 -6 -9 -8 -13 -6 -4 2 -16 -2 -27 -10 -10 -8 -13 -14
-6 -14 7 0 9 -5 5 -12 -4 -8 -3 -10 2 -5 5 5 9 14 9 20 0 7 5 12 12 12 7 0 18
6 25 13 6 6 9 12 6 12 -4 0 -10 -5 -13 -10z"/>
<path d="M1515 800 c-3 -5 -1 -10 4 -10 6 0 11 5 11 10 0 6 -2 10 -4 10 -3 0
-8 -4 -11 -10z"/>
<path d="M1534 779 c-4 -7 -3 -9 4 -5 5 3 13 0 15 -6 4 -9 6 -10 6 -1 1 17
-16 25 -25 12z"/>
<path d="M3532 777 c-9 -10 -8 -18 4 -33 14 -18 15 -18 5 3 -8 16 -8 23 2 26
6 2 9 7 6 11 -3 4 -11 0 -17 -7z"/>
<path d="M3485 757 c-15 -12 -16 -15 -4 -22 8 -5 11 -5 7 0 -4 4 0 14 10 21
23 18 11 18 -13 1z"/>
<path d="M3420 725 c-7 -9 -8 -15 -2 -15 5 0 12 7 16 15 3 8 4 15 2 15 -2 0
-9 -7 -16 -15z"/>
<path d="M3450 722 c0 -5 7 -9 15 -9 8 0 12 4 9 9 -3 4 -9 8 -15 8 -5 0 -9 -4
-9 -8z"/>
<path d="M1717 689 c7 -7 15 -10 18 -7 3 3 -2 9 -12 12 -14 6 -15 5 -6 -5z"/>
<path d="M1772 691 c4 -13 18 -16 19 -4 0 4 -5 9 -11 12 -7 2 -11 -2 -8 -8z"/>
<path d="M1810 681 c0 -10 7 -13 26 -10 4 0 11 -5 16 -13 8 -10 9 -10 5 2 -2
8 -8 15 -13 15 -5 0 -15 4 -21 8 -8 5 -13 4 -13 -2z"/>
<path d="M3270 680 c0 -5 5 -10 11 -10 5 0 7 5 4 10 -3 6 -8 10 -11 10 -2 0
-4 -4 -4 -10z"/>
<path d="M3370 679 c0 -5 5 -7 10 -4 6 3 10 8 10 11 0 2 -4 4 -10 4 -5 0 -10
-5 -10 -11z"/>
<path d="M3205 659 c-4 -6 -4 -13 -1 -16 3 -4 6 -1 6 6 0 7 5 9 12 5 7 -4 8
-3 4 4 -9 15 -13 15 -21 1z"/>
<path d="M3295 660 c-3 -5 -1 -10 4 -10 6 0 11 5 11 10 0 6 -2 10 -4 10 -3 0
-8 -4 -11 -10z"/>
<path d="M1813 645 c0 -8 4 -15 9 -15 4 0 8 4 8 9 0 6 -4 12 -8 15 -5 3 -9 -1
-9 -9z"/>
<path d="M3252 651 c-11 -7 -11 -9 0 -14 9 -3 15 1 15 9 0 8 -1 14 -1 14 -1 0
-7 -4 -14 -9z"/>
<path d="M3105 640 c-3 -5 -1 -10 4 -10 6 0 11 5 11 10 0 6 -2 10 -4 10 -3 0
-8 -4 -11 -10z"/>
<path d="M3130 639 c0 -4 14 -6 30 -5 17 0 30 4 30 7 0 4 -13 6 -30 5 -16 0
-30 -4 -30 -7z"/>
<path d="M1919 613 c-13 -16 -12 -17 4 -4 16 13 21 21 13 21 -2 0 -10 -8 -17
-17z"/>
<path d="M2025 620 c-3 -6 1 -7 9 -4 18 7 21 14 7 14 -6 0 -13 -4 -16 -10z"/>
<path d="M2086 623 c-4 -5 -13 -8 -18 -8 -6 0 -12 -6 -14 -13 -1 -7 0 -8 2 -3
3 6 11 8 18 5 8 -3 16 2 19 10 7 17 4 20 -7 9z"/>
<path d="M3015 620 c3 -5 14 -10 23 -10 15 0 15 2 2 10 -20 13 -33 13 -25 0z"/>
<path d="M3225 620 c-3 -6 1 -7 9 -4 18 7 21 14 7 14 -6 0 -13 -4 -16 -10z"/>
<path d="M2106 603 c-6 -14 -5 -15 5 -6 7 7 10 15 7 18 -3 3 -9 -2 -12 -12z"/>
<path d="M2506 601 c-18 -20 -20 -31 -6 -31 6 0 9 5 8 12 -3 14 20 18 44 6 11
-5 18 -3 22 8 3 8 2 12 -4 9 -5 -3 -18 -1 -29 4 -14 8 -22 6 -35 -8z"/>
<path d="M2815 610 c-4 -7 -2 -17 4 -23 9 -9 11 -7 6 8 -6 19 -6 19 8 2 14
-17 15 -17 21 0 4 10 4 14 0 10 -4 -4 -13 -2 -20 4 -8 7 -14 7 -19 -1z"/>
<path d="M2954 609 c-4 -7 -3 -9 4 -5 5 3 13 0 15 -6 4 -9 6 -10 6 -1 1 17
-16 25 -25 12z"/>
<path d="M2993 607 c0 -8 6 -14 14 -14 9 0 10 4 2 14 -6 7 -12 13 -14 13 -1 0
-2 -6 -2 -13z"/>
<path d="M2257 593 c4 -10 2 -14 -5 -9 -6 3 -13 2 -16 -3 -4 -5 2 -8 11 -7 19
3 32 36 14 36 -6 0 -7 -7 -4 -17z"/>
<path d="M2283 595 c0 -8 4 -12 9 -9 5 3 6 10 3 15 -9 13 -12 11 -12 -6z"/>
<path d="M2336 595 c-3 -8 -1 -15 4 -15 6 0 10 7 10 15 0 8 -2 15 -4 15 -2 0
-6 -7 -10 -15z"/>
<path d="M2587 591 c-4 -17 -3 -21 5 -13 5 5 8 16 6 23 -3 8 -7 3 -11 -10z"/>
<path d="M2613 586 c-2 -19 -1 -19 8 -3 6 9 15 17 21 17 6 0 5 -7 -3 -17 -13
-17 -13 -17 5 -3 11 8 27 14 38 12 10 -2 18 0 18 5 0 4 -19 8 -43 9 -37 0 -43
-3 -44 -20z"/>
<path d="M2750 586 c0 -2 9 -6 20 -9 11 -3 18 -1 14 4 -5 9 -34 13 -34 5z"/>
</g>
</svg>
